<svg xmlns="http://www.w3.org/2000/svg" fill="none" viewBox="0 0 1206 337">
  <path d="M65.015 21.346a.454.454 0 01-.306-.108.454.454 0 01-.108-.306v-.576c0-.108.03-.228.09-.36.06-.132.18-.276.36-.432l3.816-3.816a19.941 19.941 0 001.44-1.314c.36-.372.612-.726.756-1.062.156-.336.234-.684.234-1.044 0-.684-.192-1.224-.576-1.62-.384-.408-.954-.612-1.71-.612-.48 0-.894.102-1.242.306a2.147 2.147 0 00-.828.81 3.18 3.18 0 00-.378 1.152c-.024.156-.09.264-.198.324a.515.515 0 01-.27.09h-.936a.407.407 0 01-.27-.09.345.345 0 01-.108-.252c.012-.456.108-.912.288-1.368.18-.468.444-.888.792-1.26.36-.372.798-.672 1.314-.9.528-.24 1.14-.36 1.836-.36.948 0 1.722.174 2.322.522.612.336 1.062.786 1.35 1.35.288.564.432 1.182.432 1.854 0 .528-.09 1.014-.27 1.458-.18.432-.444.858-.792 1.278a10.38 10.38 0 01-1.26 1.26l-3.456 3.51h5.616c.132 0 .234.036.306.108a.381.381 0 01.126.306v.738c0 .12-.042.222-.126.306-.072.072-.174.108-.306.108h-7.938zm14.975.18c-.828 0-1.53-.126-2.106-.378a3.768 3.768 0 01-1.386-1.08 4.488 4.488 0 01-.792-1.566 8.484 8.484 0 01-.27-1.872 278.11 278.11 0 01-.036-1.026v-1.08l.036-1.062c.012-.66.102-1.284.27-1.872.18-.6.444-1.122.792-1.566a3.58 3.58 0 011.404-1.062c.576-.264 1.272-.396 2.088-.396.828 0 1.524.132 2.088.396a3.579 3.579 0 011.404 1.062c.36.444.624.966.792 1.566.18.588.276 1.212.288 1.872.012.336.018.69.018 1.062.012.36.012.72 0 1.08 0 .36-.006.702-.018 1.026a6.787 6.787 0 01-.288 1.872 4.488 4.488 0 01-.792 1.566c-.348.456-.81.816-1.386 1.08-.564.252-1.266.378-2.106.378zm0-1.53c.936 0 1.626-.306 2.07-.918.456-.624.69-1.47.702-2.538.024-.348.036-.684.036-1.008v-.99a13.4 13.4 0 00-.036-.99c-.012-1.044-.246-1.878-.702-2.502-.444-.636-1.134-.954-2.07-.954-.924 0-1.614.318-2.07.954-.444.624-.678 1.458-.702 2.502 0 .324-.006.654-.018.99v.99c.012.324.018.66.018 1.008.024 1.068.264 1.914.72 2.538.456.612 1.14.918 2.052.918zm10.688 1.35a.454.454 0 01-.306-.108.454.454 0 01-.109-.306v-10.08l-2.988 2.304a.42.42 0 01-.306.09.382.382 0 01-.27-.162l-.468-.594a.48.48 0 01-.09-.324.454.454 0 01.18-.27l3.925-3.024a.577.577 0 01.234-.108c.072-.012.15-.018.233-.018h.919a.36.36 0 01.287.126.39.39 0 01.109.288v11.772c0 .12-.037.222-.109.306a.39.39 0 01-.287.108h-.955zm8.275.18c-.996 0-1.842-.198-2.538-.594-.696-.408-1.23-.936-1.602-1.584a4.402 4.402 0 01-.54-2.142c0-.36.042-.702.126-1.026.096-.336.21-.648.342-.936.144-.3.282-.564.414-.792.144-.24.27-.432.378-.576l3.42-4.77.216-.216c.084-.096.21-.144.378-.144h.954c.108 0 .192.042.252.126a.366.366 0 01.108.27.592.592 0 01-.018.144.226.226 0 01-.054.09l-2.628 3.672c.144-.048.306-.078.486-.09.192-.024.372-.036.54-.036.66.012 1.26.132 1.8.36.54.228 1.002.54 1.386.936.396.384.696.834.9 1.35.204.504.306 1.044.306 1.62 0 .756-.18 1.464-.54 2.124-.36.66-.888 1.194-1.584 1.602-.684.408-1.518.612-2.502.612zm-.018-1.53c.504 0 .972-.108 1.404-.324.432-.216.78-.528 1.044-.936.276-.42.414-.93.414-1.53 0-.612-.132-1.122-.396-1.53a2.43 2.43 0 00-1.062-.936 3.097 3.097 0 00-1.404-.324c-.504 0-.972.108-1.404.324a2.568 2.568 0 00-1.062.936c-.264.408-.396.918-.396 1.53 0 .6.132 1.11.396 1.53.276.408.63.72 1.062.936.432.216.9.324 1.404.324zM47.188 126.729h3.6v1.035h-.96l-.015 2.76h4.32l.015-2.76h-.96v-1.035h3.585v1.035h-1.425l-.045 6.765h1.44v1.035h-3.57v-1.035h.96v-2.97h-4.32l-.015 2.97h.96v1.035h-3.585v-1.035h1.44l.015-6.765h-1.44v-1.035zm15.373 8.4c-.65.44-1.355.66-2.115.66-.84 0-1.48-.17-1.92-.51-.43-.34-.65-.835-.66-1.485-.02-1.31.81-1.965 2.49-1.965l1.935.015c0-.67-.125-1.165-.375-1.485-.25-.33-.63-.495-1.14-.495-.24 0-.475.015-.705.045a4.08 4.08 0 00-.645.135l-.15.825-.96-.18.24-1.365c.38-.14.75-.245 1.11-.315a5.73 5.73 0 011.065-.105c.9 0 1.58.245 2.04.735.46.48.69 1.195.69 2.145v2.61l1.425.465-.3.96-2.025-.69zm-2.16-2.355c-.43 0-.76.085-.99.255-.23.17-.345.42-.345.75 0 .7.48 1.05 1.44 1.05.69 0 1.285-.19 1.785-.57v-1.47l-1.89-.015zm9.721-2.745c-.23-.08-.45-.135-.66-.165-.2-.03-.43-.045-.69-.045-.67 0-1.205.21-1.605.63-.4.42-.6 1.05-.6 1.89 0 .82.215 1.435.645 1.845.44.41.965.615 1.575.615.31 0 .625-.05.945-.15.32-.1.635-.255.945-.465l.495.735c-.25.18-.49.335-.72.465-.23.13-.485.23-.765.3-.28.07-.63.105-1.05.105-.64 0-1.21-.135-1.71-.405a2.97 2.97 0 01-1.155-1.2c-.27-.52-.405-1.135-.405-1.845 0-.75.15-1.38.45-1.89.31-.52.725-.91 1.245-1.17a3.687 3.687 0 011.725-.405c.4 0 .77.045 1.11.135.34.08.73.185 1.17.315l.21 1.62-.96.21-.195-1.125zm2.171-4.23l2.28.78v5.25h1.365l1.035-1.77h-.78v-.93h3.15v.93h-1.26l-1.245 2.145 1.455 2.43h1.29v.93h-1.995l-1.695-2.805h-1.32v1.875h.675v.93h-3.105v-.93h1.26v-7.41l-1.425-.495.315-.93zm12.65 9.33c-.65.44-1.354.66-2.114.66-.84 0-1.48-.17-1.92-.51-.43-.34-.65-.835-.66-1.485-.02-1.31.81-1.965 2.49-1.965l1.935.015c0-.67-.125-1.165-.375-1.485-.25-.33-.63-.495-1.14-.495-.24 0-.475.015-.705.045a4.08 4.08 0 00-.645.135l-.15.825-.96-.18.24-1.365c.38-.14.75-.245 1.11-.315a5.73 5.73 0 011.065-.105c.9 0 1.58.245 2.04.735.46.48.69 1.195.69 2.145v2.61l1.425.465-.3.96-2.025-.69zm-2.16-2.355c-.43 0-.76.085-.99.255-.23.17-.344.42-.344.75 0 .7.48 1.05 1.44 1.05.69 0 1.285-.19 1.785-.57v-1.47l-1.89-.015zm8.632 3.015c-.52 0-1.03-.07-1.53-.21-.49-.14-.925-.35-1.306-.63v-7.695l-1.424-.495.314-.93 2.266.78v2.79c.62-.33 1.2-.495 1.74-.495 1.1 0 1.904.265 2.415.795.52.53.78 1.355.78 2.475 0 1.24-.266 2.155-.796 2.745-.52.58-1.34.87-2.46.87zm-.016-.96c.71 0 1.23-.215 1.56-.645.34-.43.51-1.1.51-2.01 0-.8-.164-1.385-.494-1.755-.32-.37-.825-.555-1.515-.555-.54 0-1.115.185-1.725.555v4.035c.44.25.995.375 1.665.375zm10.42.3c-.32.2-.68.36-1.08.48s-.775.18-1.125.18c-.92 0-1.6-.205-2.04-.615-.43-.41-.645-1.05-.645-1.92v-3.195h-1.26v-.93h2.43v3.885c0 .64.125 1.105.375 1.395.26.28.665.42 1.215.42.32 0 .66-.045 1.02-.135.36-.1.65-.225.87-.375v-4.26h-1.26v-.93h2.43v5.265l1.41.48-.3.96-2.04-.705zm5.42-5.52a3.93 3.93 0 011.155-.525c.43-.12.86-.18 1.29-.18.36 0 .55.01.57.03l.255 1.575-.975.21-.15-.84a3.683 3.683 0 00-1.845.51v4.245h1.47v.93h-3.9v-.93h1.26v-4.29l-1.44-.495.315-.93 1.995.69zm6.93 4.185c-.91 0-1.63-.21-2.16-.63-.52-.43-.78-1.02-.78-1.77 0-.77.265-1.375.795-1.815.53-.45 1.25-.675 2.16-.675.38 0 .715.035 1.005.105.3.07.575.175.825.315l2.13-.795.345.99-1.77.405c.15.19.26.4.33.63.08.23.12.485.12.765 0 .5-.125.94-.375 1.32-.24.37-.585.655-1.035.855-.45.2-.98.3-1.59.3zm.12 5.115c-.32 0-.695-.035-1.125-.105-.43-.07-.84-.165-1.23-.285-.38-.11-.665-.22-.855-.33l.42-.885c.36.19.805.34 1.335.45.53.11 1.015.165 1.455.165.43 0 .795-.035 1.095-.105.3-.06.53-.16.69-.3.17-.13.255-.3.255-.51 0-.32-.135-.555-.405-.705-.27-.14-.655-.21-1.155-.21h-2.145v-2.955l1.14.375v1.65h1.32c.8 0 1.4.145 1.8.435.4.29.6.725.6 1.305 0 .42-.13.78-.39 1.08-.25.3-.615.53-1.095.69-.47.16-1.04.24-1.71.24zm-.09-6.075c.55 0 .985-.14 1.305-.42.32-.28.48-.635.48-1.065 0-.47-.15-.835-.45-1.095-.3-.26-.745-.39-1.335-.39s-1.035.13-1.335.39c-.3.26-.45.625-.45 1.095 0 .43.16.785.48 1.065.32.28.755.42 1.305.42zm-77.887 22.73l-1.8-5.505h-1.26v-.93h3.39v.93h-.975l.825 2.565.495 1.56.465-1.53.81-2.61h1.14l.825 2.685.465 1.485.45-1.41.885-2.745h-.81v-.93h3.09v.93h-1.275l-1.755 5.505h-1.14l-1.305-4.05-1.35 4.05h-1.17zm8.568-6.435h2.43v5.505h1.245v.93H44.88v-.93h1.245v-4.575H44.88v-.93zm1.68-3.195c.28 0 .505.085.675.255.17.17.255.395.255.675s-.085.505-.255.675c-.17.17-.395.255-.675.255s-.505-.085-.675-.255c-.16-.17-.24-.395-.24-.675s.08-.505.24-.675c.17-.17.395-.255.675-.255zm5.11 3.675a3.93 3.93 0 011.156-.525c.43-.12.86-.18 1.29-.18.36 0 .55.01.57.03l.255 1.575-.975.21-.15-.84a3.683 3.683 0 00-1.845.51v4.245h1.47v.93h-3.9v-.93h1.26v-4.29l-1.44-.495.315-.93 1.995.69zm11.179 6.21l-1.995-.69c-.61.44-1.26.66-1.95.66-1.03 0-1.835-.315-2.415-.945-.57-.64-.855-1.52-.855-2.64 0-1.04.285-1.85.855-2.43.58-.58 1.385-.87 2.415-.87.27 0 .55.03.84.09.3.05.575.125.825.225v-1.965l-1.425-.495.315-.93 2.28.78v7.77l1.41.48-.3.96zm-3.93-.99c.25 0 .525-.05.825-.15.3-.11.575-.245.825-.405v-4.035c-.22-.11-.485-.2-.795-.27-.3-.07-.585-.105-.855-.105-.62 0-1.125.215-1.515.645-.38.42-.57.98-.57 1.68 0 .79.19 1.43.57 1.92.39.48.895.72 1.515.72zm11.752-1.035c-.91 0-1.63-.21-2.16-.63-.52-.43-.78-1.02-.78-1.77 0-.77.265-1.375.794-1.815.53-.45 1.25-.675 2.16-.675.38 0 .715.035 1.005.105.3.07.576.175.826.315l2.13-.795.344.99-1.77.405c.15.19.26.4.33.63.08.23.12.485.12.765 0 .5-.124.94-.374 1.32-.24.37-.586.655-1.036.855-.45.2-.98.3-1.59.3zm.12 5.115c-.32 0-.695-.035-1.126-.105-.43-.07-.84-.165-1.23-.285-.38-.11-.665-.22-.855-.33l.42-.885c.36.19.805.34 1.335.45.53.11 1.016.165 1.456.165.43 0 .794-.035 1.094-.105.3-.06.53-.16.69-.3.17-.13.255-.3.255-.51 0-.32-.135-.555-.404-.705-.27-.14-.656-.21-1.156-.21h-2.144v-2.955l1.14.375v1.65h1.32c.8 0 1.4.145 1.8.435.4.29.6.725.6 1.305 0 .42-.13.78-.39 1.08-.25.3-.615.53-1.096.69-.47.16-1.04.24-1.71.24zm-.09-6.075c.55 0 .985-.14 1.305-.42.32-.28.48-.635.48-1.065 0-.47-.15-.835-.45-1.095-.3-.26-.746-.39-1.335-.39-.59 0-1.035.13-1.335.39-.3.26-.45.625-.45 1.095 0 .43.16.785.48 1.065.32.28.754.42 1.305.42zm10.666 1.965c-.4.34-.81.59-1.23.75-.41.16-.88.24-1.41.24-.7 0-1.31-.135-1.83-.405a3.013 3.013 0 01-1.215-1.185c-.28-.52-.42-1.14-.42-1.86 0-.69.135-1.29.405-1.8.27-.52.65-.92 1.14-1.2.5-.29 1.075-.435 1.725-.435.61 0 1.13.13 1.56.39.43.26.76.625.99 1.095.24.46.36 1.01.36 1.65 0 .09-.005.185-.015.285 0 .09-.005.185-.015.285l-4.995.03c.03.51.15.925.36 1.245.22.32.495.555.825.705.34.15.7.225 1.08.225.44 0 .835-.06 1.185-.18.35-.12.67-.3.96-.54l.54.705zm-1.08-3.105c-.01-.56-.175-1.01-.495-1.35-.31-.35-.725-.525-1.245-.525-.53 0-.995.175-1.395.525-.4.34-.64.795-.72 1.365l3.855-.015zm5.193 2.1c-.91 0-1.63-.21-2.16-.63-.52-.43-.78-1.02-.78-1.77 0-.77.265-1.375.795-1.815.53-.45 1.25-.675 2.16-.675.38 0 .715.035 1.005.105.3.07.575.175.825.315l2.13-.795.345.99-1.77.405c.15.19.26.4.33.63.08.23.12.485.12.765 0 .5-.125.94-.375 1.32-.24.37-.585.655-1.035.855-.45.2-.98.3-1.59.3zm.12 5.115c-.32 0-.695-.035-1.125-.105-.43-.07-.84-.165-1.23-.285-.38-.11-.665-.22-.855-.33l.42-.885c.36.19.805.34 1.335.45.53.11 1.015.165 1.455.165.43 0 .795-.035 1.095-.105.3-.06.53-.16.69-.3.17-.13.255-.3.255-.51 0-.32-.135-.555-.405-.705-.27-.14-.655-.21-1.155-.21h-2.145v-2.955l1.14.375v1.65h1.32c.8 0 1.4.145 1.8.435.4.29.6.725.6 1.305 0 .42-.13.78-.39 1.08-.25.3-.615.53-1.095.69-.47.16-1.04.24-1.71.24zm-.09-6.075c.55 0 .985-.14 1.305-.42.32-.28.48-.635.48-1.065 0-.47-.15-.835-.45-1.095-.3-.26-.745-.39-1.335-.39s-1.035.13-1.335.39c-.3.26-.45.625-.45 1.095 0 .43.16.785.48 1.065.32.28.755.42 1.305.42zm7.337-3.225a3.93 3.93 0 011.155-.525c.43-.12.86-.18 1.29-.18.36 0 .55.01.57.03l.255 1.575-.975.21-.15-.84a3.683 3.683 0 00-1.845.51v4.245h1.47v.93h-3.9v-.93h1.26v-4.29l-1.44-.495.315-.93 1.995.69zm9.99 5.52c-.32.2-.68.36-1.08.48s-.775.18-1.125.18c-.92 0-1.6-.205-2.04-.615-.43-.41-.645-1.05-.645-1.92v-3.195h-1.26v-.93h2.43v3.885c0 .64.125 1.105.375 1.395.26.28.665.42 1.215.42.32 0 .66-.045 1.02-.135.36-.1.65-.225.87-.375v-4.26h-1.26v-.93h2.43v5.265l1.41.48-.3.96-2.04-.705zm-.945-8.85c.23 0 .425.085.585.255.17.16.255.355.255.585 0 .23-.085.43-.255.6a.796.796 0 01-.585.24c-.23 0-.43-.08-.6-.24a.847.847 0 01-.24-.6c0-.23.08-.425.24-.585.17-.17.37-.255.6-.255zm-2.67 0c.23 0 .425.085.585.255.17.16.255.355.255.585 0 .23-.085.43-.255.6a.796.796 0 01-.585.24c-.23 0-.43-.08-.6-.24a.847.847 0 01-.24-.6c0-.23.08-.425.24-.585.17-.17.37-.255.6-.255zm6.891 9.285v-.93h1.26v-4.305l-1.44-.495.315-.93 1.995.69c.35-.23.72-.4 1.11-.51.4-.12.79-.18 1.17-.18.48 0 .92.095 1.32.285.41.18.735.46.975.84.25.37.375.84.375 1.41v3.195h1.26v.93h-3.105v-.93h.675v-2.955c0-.64-.165-1.1-.495-1.38-.32-.29-.72-.435-1.2-.435-.28 0-.575.045-.885.135-.3.08-.6.205-.9.375v4.26h.675v.93h-3.105zm16.369.255l-1.995-.69c-.61.44-1.26.66-1.95.66-1.03 0-1.835-.315-2.415-.945-.57-.64-.855-1.52-.855-2.64 0-1.04.285-1.85.855-2.43.58-.58 1.385-.87 2.415-.87.27 0 .55.03.84.09.3.05.575.125.825.225v-1.965l-1.425-.495.315-.93 2.28.78v7.77l1.41.48-.3.96zm-3.93-.99c.25 0 .525-.05.825-.15.3-.11.575-.245.825-.405v-4.035c-.22-.11-.485-.2-.795-.27-.3-.07-.585-.105-.855-.105-.62 0-1.125.215-1.515.645-.38.42-.57.98-.57 1.68 0 .79.19 1.43.57 1.92.39.48.895.72 1.515.72zm11.243-.03c-.4.34-.81.59-1.23.75-.41.16-.88.24-1.41.24-.7 0-1.31-.135-1.83-.405a3.013 3.013 0 01-1.215-1.185c-.28-.52-.42-1.14-.42-1.86 0-.69.135-1.29.405-1.8.27-.52.65-.92 1.14-1.2.5-.29 1.075-.435 1.725-.435.61 0 1.13.13 1.56.39.43.26.76.625.99 1.095.24.46.36 1.01.36 1.65 0 .09-.005.185-.015.285 0 .09-.005.185-.015.285l-4.995.03c.03.51.15.925.36 1.245.22.32.495.555.825.705.34.15.7.225 1.08.225.44 0 .835-.06 1.185-.18.35-.12.67-.3.96-.54l.54.705zm-1.08-3.105c-.01-.56-.175-1.01-.495-1.35-.31-.35-.725-.525-1.245-.525-.53 0-.995.175-1.395.525-.4.34-.64.795-.72 1.365l3.855-.015zm5.463 4.095c-.36 0-.705-.07-1.035-.21-.32-.14-.58-.39-.78-.75-.2-.36-.3-.86-.3-1.5v-3.27h-1.245v-.93h1.245v-1.455l1.14-.27v1.725h1.875v.93h-1.875v2.61c0 .67.065 1.21.195 1.62.13.41.415.615.855.615.31 0 .66-.09 1.05-.27l.225.84c-.21.08-.43.15-.66.21-.23.07-.46.105-.69.105zm-111.87 19.34c-.32.2-.68.36-1.08.48s-.776.18-1.126.18c-.92 0-1.6-.205-2.04-.615-.43-.41-.645-1.05-.645-1.92v-3.195h-1.26v-.93h2.43v3.885c0 .64.125 1.105.375 1.395.26.28.665.42 1.215.42.32 0 .66-.045 1.02-.135.36-.1.65-.225.87-.375v-4.26h-1.26v-.93h2.43v5.265l1.41.48-.3.96-2.04-.705zm3.275.435v-.93h1.26v-4.305l-1.44-.495.315-.93 1.995.69c.35-.23.72-.4 1.11-.51.4-.12.79-.18 1.17-.18.48 0 .92.095 1.32.285.41.18.735.46.975.84.25.37.375.84.375 1.41v3.195h1.26v.93h-3.105v-.93h.675v-2.955c0-.64-.165-1.1-.495-1.38-.32-.29-.72-.435-1.2-.435-.28 0-.575.045-.885.135-.3.08-.6.205-.9.375v4.26h.675v.93h-3.105zm16.37.255l-1.995-.69c-.61.44-1.26.66-1.95.66-1.03 0-1.835-.315-2.415-.945-.57-.64-.855-1.52-.855-2.64 0-1.04.285-1.85.855-2.43.58-.58 1.385-.87 2.415-.87.27 0 .55.03.84.09.3.05.575.125.825.225v-1.965l-1.425-.495.315-.93 2.28.78v7.77l1.41.48-.3.96zm-3.93-.99c.25 0 .525-.05.825-.15.3-.11.575-.245.825-.405v-4.035c-.22-.11-.485-.2-.795-.27-.3-.07-.585-.105-.855-.105-.62 0-1.125.215-1.515.645-.38.42-.57.98-.57 1.68 0 .79.19 1.43.57 1.92.39.48.895.72 1.515.72zm10.116-6.6c0-.8.235-1.42.705-1.86.47-.45 1.13-.675 1.98-.675.36 0 .706.055 1.035.165.34.11.62.265.84.465l-.465.825c-.36-.33-.855-.495-1.485-.495-.45 0-.805.16-1.065.48-.25.32-.374.765-.374 1.335v.66h1.86v.93h-1.86v4.575h1.35v.93h-3.78v-.93h1.26v-4.575h-1.26v-.93h1.26v-.9zm4.125.9h2.43v5.505h1.245v.93h-3.675v-.93h1.245v-4.575h-1.245v-.93zm1.68-3.195c.28 0 .505.085.675.255.17.17.255.395.255.675s-.085.505-.255.675c-.17.17-.395.255-.675.255s-.505-.085-.675-.255c-.16-.17-.24-.395-.24-.675s.08-.505.24-.675c.17-.17.395-.255.675-.255zm2.972 9.63v-.93h1.26v-4.305l-1.44-.495.315-.93 1.995.69c.35-.23.72-.4 1.11-.51.4-.12.79-.18 1.17-.18.48 0 .92.095 1.32.285.41.18.735.46.975.84.25.37.375.84.375 1.41v3.195h1.26v.93H62.15v-.93h.675v-2.955c0-.64-.165-1.1-.495-1.38-.32-.29-.72-.435-1.2-.435-.28 0-.575.045-.885.135-.3.08-.6.205-.9.375v4.26h.675v.93h-3.105zm16.37.255l-1.995-.69c-.61.44-1.26.66-1.95.66-1.03 0-1.835-.315-2.415-.945-.57-.64-.855-1.52-.855-2.64 0-1.04.285-1.85.855-2.43.58-.58 1.385-.87 2.415-.87.27 0 .55.03.84.09.3.05.575.125.825.225v-1.965l-1.425-.495.315-.93 2.28.78v7.77l1.41.48-.3.96zm-3.93-.99c.25 0 .525-.05.825-.15.3-.11.575-.245.825-.405v-4.035c-.22-.11-.485-.2-.795-.27-.3-.07-.585-.105-.855-.105-.62 0-1.125.215-1.515.645-.38.42-.57.98-.57 1.68 0 .79.19 1.43.57 1.92.39.48.895.72 1.515.72zm11.242-.03c-.4.34-.81.59-1.23.75-.41.16-.88.24-1.41.24-.7 0-1.31-.135-1.83-.405a3.013 3.013 0 01-1.215-1.185c-.28-.52-.42-1.14-.42-1.86 0-.69.135-1.29.405-1.8.27-.52.65-.92 1.14-1.2.5-.29 1.075-.435 1.725-.435.61 0 1.13.13 1.56.39.43.26.76.625.99 1.095.24.46.36 1.01.36 1.65 0 .09-.005.185-.015.285 0 .09-.005.185-.015.285l-4.995.03c.03.51.15.925.36 1.245.22.32.495.555.825.705.34.15.7.225 1.08.225.44 0 .835-.06 1.185-.18.35-.12.67-.3.96-.54l.54.705zm-1.08-3.105c-.01-.56-.175-1.01-.495-1.35-.31-.35-.725-.525-1.245-.525-.53 0-.995.175-1.395.525-.4.34-.64.795-.72 1.365l3.855-.015zm5.463 4.095c-.36 0-.705-.07-1.035-.21-.32-.14-.58-.39-.78-.75-.2-.36-.3-.86-.3-1.5v-3.27h-1.245v-.93h1.245v-1.455l1.14-.27v1.725h1.875v.93h-1.875v2.61c0 .67.065 1.21.195 1.62.13.41.415.615.855.615.31 0 .66-.09 1.05-.27l.225.84c-.21.08-.43.15-.66.21-.23.07-.46.105-.69.105zm13.339.03l-1.995-.69c-.61.44-1.26.66-1.95.66-1.03 0-1.835-.315-2.415-.945-.57-.64-.855-1.52-.855-2.64 0-1.04.285-1.85.855-2.43.58-.58 1.385-.87 2.415-.87.27 0 .55.03.84.09.3.05.575.125.825.225v-1.965l-1.425-.495.315-.93 2.28.78v7.77l1.41.48-.3.96zm-3.93-.99c.25 0 .525-.05.825-.15.3-.11.575-.245.825-.405v-4.035c-.22-.11-.485-.2-.795-.27-.3-.07-.585-.105-.855-.105-.62 0-1.125.215-1.515.645-.38.42-.57.98-.57 1.68 0 .79.19 1.43.57 1.92.39.48.895.72 1.515.72zm9.787.3c-.65.44-1.355.66-2.115.66-.84 0-1.48-.17-1.92-.51-.43-.34-.65-.835-.66-1.485-.02-1.31.81-1.965 2.49-1.965l1.935.015c0-.67-.125-1.165-.375-1.485-.25-.33-.63-.495-1.14-.495-.24 0-.475.015-.705.045a4.08 4.08 0 00-.645.135l-.15.825-.96-.18.24-1.365c.38-.14.75-.245 1.11-.315a5.73 5.73 0 011.065-.105c.9 0 1.58.245 2.04.735.46.48.69 1.195.69 2.145v2.61l1.425.465-.3.96-2.025-.69zm-2.16-2.355c-.43 0-.76.085-.99.255-.23.17-.345.42-.345.75 0 .7.48 1.05 1.44 1.05.69 0 1.285-.19 1.785-.57v-1.47l-1.89-.015zm9.531-2.7c-.22-.09-.43-.16-.63-.21-.2-.05-.46-.075-.78-.075-.38 0-.725.085-1.035.255-.3.17-.45.41-.45.72 0 .3.125.535.375.705.26.16.62.265 1.08.315l.615.06c.82.08 1.395.285 1.725.615.33.32.495.745.495 1.275 0 .41-.115.77-.345 1.08-.22.31-.535.55-.945.72-.4.17-.87.255-1.41.255-.49 0-.97-.065-1.44-.195-.46-.13-.86-.29-1.2-.48l-.255-1.515 1.035-.255.225 1.05c.23.13.48.23.75.3.28.07.56.105.84.105.44 0 .825-.085 1.155-.255.34-.18.51-.44.51-.78 0-.3-.1-.51-.3-.63-.2-.13-.55-.225-1.05-.285l-.66-.075c-.74-.08-1.305-.295-1.695-.645-.39-.35-.585-.78-.585-1.29 0-.44.125-.805.375-1.095.25-.29.57-.505.96-.645.4-.14.815-.21 1.245-.21.47 0 .89.045 1.26.135.37.09.725.22 1.065.39l.27 1.425-.945.21-.255-.975zm12.482 4.725c-.4.34-.81.59-1.23.75-.41.16-.88.24-1.41.24-.7 0-1.31-.135-1.83-.405a3.013 3.013 0 01-1.215-1.185c-.28-.52-.42-1.14-.42-1.86 0-.69.135-1.29.405-1.8.27-.52.65-.92 1.14-1.2.5-.29 1.075-.435 1.725-.435.61 0 1.13.13 1.56.39.43.26.76.625.99 1.095.24.46.36 1.01.36 1.65 0 .09-.005.185-.015.285 0 .09-.005.185-.015.285l-4.995.03c.03.51.15.925.36 1.245.22.32.495.555.825.705.34.15.7.225 1.08.225.44 0 .835-.06 1.185-.18.35-.12.67-.3.96-.54l.54.705zm-1.08-3.105c-.01-.56-.175-1.01-.495-1.35-.31-.35-.725-.525-1.245-.525-.53 0-.995.175-1.395.525-.4.34-.64.795-.72 1.365l3.855-.015zm4.241-2.085a3.93 3.93 0 011.155-.525c.43-.12.86-.18 1.29-.18.36 0 .55.01.57.03l.255 1.575-.975.21-.15-.84a3.683 3.683 0 00-1.845.51v4.245h1.47v.93h-3.9v-.93h1.26v-4.29l-1.44-.495.315-.93 1.995.69zm8.219.465c-.22-.09-.43-.16-.63-.21-.2-.05-.46-.075-.78-.075-.38 0-.725.085-1.035.255-.3.17-.45.41-.45.72 0 .3.125.535.375.705.26.16.62.265 1.08.315l.615.06c.82.08 1.395.285 1.725.615.33.32.495.745.495 1.275 0 .41-.115.77-.345 1.08-.22.31-.535.55-.945.72-.4.17-.87.255-1.41.255-.49 0-.97-.065-1.44-.195-.46-.13-.86-.29-1.2-.48l-.255-1.515 1.035-.255.225 1.05c.23.13.48.23.75.3.28.07.56.105.84.105.44 0 .825-.085 1.155-.255.34-.18.51-.44.51-.78 0-.3-.1-.51-.3-.63-.2-.13-.55-.225-1.05-.285l-.66-.075c-.74-.08-1.305-.295-1.695-.645-.39-.35-.585-.78-.585-1.29 0-.44.125-.805.375-1.095.25-.29.57-.505.96-.645.4-.14.815-.21 1.245-.21.47 0 .89.045 1.26.135.37.09.725.22 1.065.39l.27 1.425-.945.21-.255-.975zm5.733 5.715c-.36 0-.705-.07-1.035-.21-.32-.14-.58-.39-.78-.75-.2-.36-.3-.86-.3-1.5v-3.27h-1.245v-.93h1.245v-1.455l1.14-.27v1.725h1.875v.93h-1.875v2.61c0 .67.065 1.21.195 1.62.13.41.415.615.855.615.31 0 .66-.09 1.05-.27l.225.84c-.21.08-.43.15-.66.21-.23.07-.46.105-.69.105zm7.746-.99c-.4.34-.81.59-1.23.75-.41.16-.88.24-1.41.24-.7 0-1.31-.135-1.83-.405a3.013 3.013 0 01-1.215-1.185c-.28-.52-.42-1.14-.42-1.86 0-.69.135-1.29.405-1.8.27-.52.65-.92 1.14-1.2.5-.29 1.075-.435 1.725-.435.61 0 1.13.13 1.56.39.43.26.76.625.99 1.095.24.46.36 1.01.36 1.65 0 .09-.005.185-.015.285 0 .09-.005.185-.015.285l-4.995.03c.03.51.15.925.36 1.245.22.32.495.555.825.705.34.15.7.225 1.08.225.44 0 .835-.06 1.185-.18.35-.12.67-.3.96-.54l.54.705zm-1.08-3.105c-.01-.56-.175-1.01-.495-1.35-.31-.35-.725-.525-1.245-.525-.53 0-.995.175-1.395.525-.4.34-.64.795-.72 1.365l3.855-.015zm-131.77 15.035h3.315l2.52 6.435 2.49-6.435h3.195v1.035h-1.41v6.765h1.41v1.035h-3.57v-1.035h.96v-6.765l-.675 1.95-1.83 4.785h-1.29l-1.92-4.815-.69-1.92-.045 6.765h.99v1.035h-3.51v-1.035h1.44l.015-6.765h-1.395v-1.035zm17.305 8.4c-.65.44-1.355.66-2.114.66-.84 0-1.48-.17-1.92-.51-.43-.34-.65-.835-.66-1.485-.02-1.31.81-1.965 2.49-1.965l1.934.015c0-.67-.124-1.165-.374-1.485-.25-.33-.63-.495-1.14-.495-.24 0-.476.015-.705.045a4.08 4.08 0 00-.646.135l-.15.825-.96-.18.24-1.365c.38-.14.75-.245 1.11-.315a5.73 5.73 0 011.066-.105c.9 0 1.58.245 2.04.735.46.48.69 1.195.69 2.145v2.61l1.425.465-.3.96-2.026-.69zm-2.16-2.355c-.43 0-.76.085-.99.255-.23.17-.345.42-.345.75 0 .7.48 1.05 1.44 1.05.69 0 1.285-.19 1.785-.57v-1.47l-1.89-.015zm5.151 2.79v-.93h1.26v-7.56l-1.5-.33.255-.96 2.415.555v8.295h1.26v.93h-3.69zm13.035-.435c-.65.44-1.355.66-2.115.66-.84 0-1.48-.17-1.92-.51-.43-.34-.65-.835-.66-1.485-.02-1.31.81-1.965 2.49-1.965l1.935.015c0-.67-.125-1.165-.375-1.485-.25-.33-.63-.495-1.14-.495-.24 0-.475.015-.705.045a4.08 4.08 0 00-.645.135l-.15.825-.96-.18.24-1.365c.38-.14.75-.245 1.11-.315a5.73 5.73 0 011.065-.105c.9 0 1.58.245 2.04.735.46.48.69 1.195.69 2.145v2.61l1.425.465-.3.96-2.025-.69zm-2.16-2.355c-.43 0-.76.085-.99.255-.23.17-.345.42-.345.75 0 .7.48 1.05 1.44 1.05.69 0 1.285-.19 1.785-.57v-1.47l-1.89-.015zm4.982 2.79v-.93h1.26v-4.305l-1.44-.495.315-.93 1.995.69c.35-.23.72-.4 1.11-.51.4-.12.79-.18 1.17-.18.48 0 .92.095 1.32.285.41.18.735.46.975.84.25.37.375.84.375 1.41v3.195h1.26v.93h-3.105v-.93h.675v-2.955c0-.64-.165-1.1-.495-1.38-.32-.29-.72-.435-1.2-.435-.28 0-.575.045-.885.135-.3.08-.6.205-.9.375v4.26h.675v.93h-3.105zm20.28.255l-1.994-.69c-.61.44-1.26.66-1.95.66-1.03 0-1.835-.315-2.415-.945-.57-.64-.855-1.52-.855-2.64 0-1.04.285-1.85.855-2.43.58-.58 1.385-.87 2.415-.87.27 0 .55.03.84.09.3.05.575.125.825.225v-1.965l-1.425-.495.315-.93 2.28.78v7.77l1.41.48-.3.96zm-3.93-.99c.25 0 .526-.05.826-.15.3-.11.575-.245.825-.405v-4.035c-.22-.11-.485-.2-.795-.27-.3-.07-.585-.105-.855-.105-.62 0-1.125.215-1.515.645-.38.42-.57.98-.57 1.68 0 .79.19 1.43.57 1.92.39.48.895.72 1.515.72zm11.243-.03c-.4.34-.81.59-1.23.75-.41.16-.88.24-1.41.24-.7 0-1.31-.135-1.83-.405a3.013 3.013 0 01-1.215-1.185c-.28-.52-.42-1.14-.42-1.86 0-.69.135-1.29.405-1.8.27-.52.65-.92 1.14-1.2.5-.29 1.075-.435 1.725-.435.61 0 1.13.13 1.56.39.43.26.76.625.99 1.095.24.46.36 1.01.36 1.65 0 .09-.005.185-.015.285 0 .09-.005.185-.015.285l-4.995.03c.03.51.15.925.36 1.245.22.32.495.555.825.705.34.15.7.225 1.08.225.44 0 .835-.06 1.185-.18.35-.12.67-.3.96-.54l.54.705zm-1.08-3.105c-.01-.56-.175-1.01-.495-1.35-.31-.35-.725-.525-1.245-.525-.53 0-.995.175-1.395.525-.4.34-.64.795-.72 1.365l3.855-.015zm4.24-2.085a3.93 3.93 0 011.155-.525c.43-.12.86-.18 1.29-.18.36 0 .55.01.57.03l.255 1.575-.975.21-.15-.84a3.683 3.683 0 00-1.845.51v4.245h1.47v.93h-3.9v-.93h1.26v-4.29l-1.44-.495.315-.93 1.995.69zm12.014-3.105c.83 0 1.55.195 2.16.585.62.38 1.1.92 1.44 1.62.35.69.525 1.5.525 2.43 0 .93-.175 1.745-.525 2.445-.34.69-.82 1.23-1.44 1.62-.61.39-1.325.585-2.145.585-.82 0-1.54-.195-2.16-.585a4.05 4.05 0 01-1.44-1.62c-.34-.7-.51-1.515-.51-2.445 0-.93.17-1.74.51-2.43.34-.7.815-1.24 1.425-1.62.62-.39 1.34-.585 2.16-.585zm.015 1.05c-.89 0-1.585.315-2.085.945-.5.63-.75 1.51-.75 2.64 0 1.14.25 2.025.75 2.655.5.63 1.195.945 2.085.945.89 0 1.585-.315 2.085-.945.5-.63.75-1.515.75-2.655 0-1.13-.25-2.01-.75-2.64-.5-.63-1.195-.945-2.085-.945zm5.306-.825h7.725v2.46h-1.14v-1.425h-2.115l-.03 6.765h1.425v1.035h-4.05v-1.035h1.425l.015-6.765h-2.115v1.425h-1.14v-2.46zm8.834 0h3.6v1.035h-.96l-.015 2.76h4.32l.015-2.76h-.96v-1.035h3.585v1.035h-1.425l-.045 6.765h1.44v1.035h-3.57v-1.035h.96v-2.97h-4.32l-.015 2.97h.96v1.035h-3.585v-1.035h1.44l.015-6.765h-1.44v-1.035zm18.628 3.345c-.22-.09-.43-.16-.63-.21-.2-.05-.46-.075-.78-.075-.38 0-.725.085-1.035.255-.3.17-.45.41-.45.72 0 .3.125.535.375.705.26.16.62.265 1.08.315l.615.06c.82.08 1.395.285 1.725.615.33.32.495.745.495 1.275 0 .41-.115.77-.345 1.08-.22.31-.535.55-.945.72-.4.17-.87.255-1.41.255-.49 0-.97-.065-1.44-.195-.46-.13-.86-.29-1.2-.48l-.255-1.515 1.035-.255.225 1.05c.23.13.48.23.75.3.28.07.56.105.84.105.44 0 .825-.085 1.155-.255.34-.18.51-.44.51-.78 0-.3-.1-.51-.3-.63-.2-.13-.55-.225-1.05-.285l-.66-.075c-.74-.08-1.305-.295-1.695-.645-.39-.35-.585-.78-.585-1.29 0-.44.125-.805.375-1.095.25-.29.57-.505.96-.645.4-.14.815-.21 1.245-.21.47 0 .89.045 1.26.135.37.09.725.22 1.065.39l.27 1.425-.945.21-.255-.975zm5.733 5.715c-.36 0-.705-.07-1.035-.21-.32-.14-.58-.39-.78-.75-.2-.36-.3-.86-.3-1.5v-3.27h-1.245v-.93h1.245v-1.455l1.14-.27v1.725h1.875v.93H132.5v2.61c0 .67.065 1.21.195 1.62.13.41.415.615.855.615.31 0 .66-.09 1.05-.27l.225.84c-.21.08-.43.15-.66.21-.23.07-.46.105-.69.105zm6.979-.66c-.65.44-1.355.66-2.115.66-.84 0-1.48-.17-1.92-.51-.43-.34-.65-.835-.66-1.485-.02-1.31.81-1.965 2.49-1.965l1.935.015c0-.67-.125-1.165-.375-1.485-.25-.33-.63-.495-1.14-.495-.24 0-.475.015-.705.045a4.08 4.08 0 00-.645.135l-.15.825-.96-.18.24-1.365c.38-.14.75-.245 1.11-.315a5.73 5.73 0 011.065-.105c.9 0 1.58.245 2.04.735.46.48.69 1.195.69 2.145v2.61l1.425.465-.3.96-2.025-.69zm-2.16-2.355c-.43 0-.76.085-.99.255-.23.17-.345.42-.345.75 0 .7.48 1.05 1.44 1.05.69 0 1.285-.19 1.785-.57v-1.47l-1.89-.015zm8.218 3.015c-.36 0-.705-.07-1.035-.21-.32-.14-.58-.39-.78-.75-.2-.36-.3-.86-.3-1.5v-3.27h-1.245v-.93h1.245v-1.455l1.14-.27v1.725h1.875v.93h-1.875v2.61c0 .67.065 1.21.195 1.62.13.41.415.615.855.615.31 0 .66-.09 1.05-.27l.225.84c-.21.08-.43.15-.66.21-.23.07-.46.105-.69.105zm5.449 0c-.36 0-.705-.07-1.035-.21-.32-.14-.58-.39-.78-.75-.2-.36-.3-.86-.3-1.5v-3.27h-1.245v-.93h1.245v-1.455l1.14-.27v1.725h1.875v.93h-1.875v2.61c0 .67.065 1.21.195 1.62.13.41.415.615.855.615.31 0 .66-.09 1.05-.27l.225.84c-.21.08-.43.15-.66.21-.23.07-.46.105-.69.105zm293.317-84.533h3.6v1.035h-.96l-.015 2.76h4.32l.015-2.76h-.96v-1.035h3.585v1.035h-1.425l-.045 6.765h1.44v1.035h-3.57v-1.035h.96v-2.97h-4.32l-.015 2.97h.96v1.035h-3.585v-1.035h1.44l.015-6.765h-1.44v-1.035zm15.373 8.4c-.65.44-1.355.66-2.115.66-.84 0-1.48-.17-1.92-.51-.43-.34-.65-.835-.66-1.485-.02-1.31.81-1.965 2.49-1.965l1.935.015c0-.67-.125-1.165-.375-1.485-.25-.33-.63-.495-1.14-.495-.24 0-.475.015-.705.045a4.08 4.08 0 00-.645.135l-.15.825-.96-.18.24-1.365c.38-.14.75-.245 1.11-.315a5.73 5.73 0 011.065-.105c.9 0 1.58.245 2.04.735.46.48.69 1.195.69 2.145v2.61l1.425.465-.3.96-2.025-.69zm-2.16-2.355c-.43 0-.76.085-.99.255-.23.17-.345.42-.345.75 0 .7.48 1.05 1.44 1.05.69 0 1.285-.19 1.785-.57v-1.47l-1.89-.015zm9.721-2.745c-.23-.08-.45-.135-.66-.165-.2-.03-.43-.045-.69-.045-.67 0-1.205.21-1.605.63-.4.42-.6 1.05-.6 1.89 0 .82.215 1.435.645 1.845.44.41.965.615 1.575.615.31 0 .625-.05.945-.15.32-.1.635-.255.945-.465l.495.735c-.25.18-.49.335-.72.465-.23.13-.485.23-.765.3-.28.07-.63.105-1.05.105-.64 0-1.21-.135-1.71-.405a2.97 2.97 0 01-1.155-1.2c-.27-.52-.405-1.135-.405-1.845 0-.75.15-1.38.45-1.89.31-.52.725-.91 1.245-1.17a3.687 3.687 0 011.725-.405c.4 0 .77.045 1.11.135.34.08.73.185 1.17.315l.21 1.62-.96.21-.195-1.125zm2.171-4.23l2.28.78v5.25h1.365l1.035-1.77h-.78v-.93h3.15v.93h-1.26l-1.245 2.145 1.455 2.43h1.29v.93h-1.995l-1.695-2.805h-1.32v1.875h.675v.93h-3.105v-.93h1.26v-7.41l-1.425-.495.315-.93zm12.65 9.33c-.65.44-1.355.66-2.115.66-.84 0-1.48-.17-1.92-.51-.43-.34-.65-.835-.66-1.485-.02-1.31.81-1.965 2.49-1.965l1.935.015c0-.67-.125-1.165-.375-1.485-.25-.33-.63-.495-1.14-.495-.24 0-.475.015-.705.045a4.08 4.08 0 00-.645.135l-.15.825-.96-.18.24-1.365c.38-.14.75-.245 1.11-.315a5.73 5.73 0 011.065-.105c.9 0 1.58.245 2.04.735.46.48.69 1.195.69 2.145v2.61l1.425.465-.3.96-2.025-.69zm-2.16-2.355c-.43 0-.76.085-.99.255-.23.17-.345.42-.345.75 0 .7.48 1.05 1.44 1.05.69 0 1.285-.19 1.785-.57v-1.47l-1.89-.015zm8.631 3.015c-.52 0-1.03-.07-1.53-.21-.49-.14-.925-.35-1.305-.63v-7.695l-1.425-.495.315-.93 2.265.78v2.79c.62-.33 1.2-.495 1.74-.495 1.1 0 1.905.265 2.415.795.52.53.78 1.355.78 2.475 0 1.24-.265 2.155-.795 2.745-.52.58-1.34.87-2.46.87zm-.015-.96c.71 0 1.23-.215 1.56-.645.34-.43.51-1.1.51-2.01 0-.8-.165-1.385-.495-1.755-.32-.37-.825-.555-1.515-.555-.54 0-1.115.185-1.725.555v4.035c.44.25.995.375 1.665.375zm10.42.3c-.32.2-.68.36-1.08.48s-.775.18-1.125.18c-.92 0-1.6-.205-2.04-.615-.43-.41-.645-1.05-.645-1.92v-3.195h-1.26v-.93h2.43v3.885c0 .64.125 1.105.375 1.395.26.28.665.42 1.215.42.32 0 .66-.045 1.02-.135.36-.1.65-.225.87-.375v-4.26h-1.26v-.93h2.43v5.265l1.41.48-.3.96-2.04-.705zm5.42-5.52a3.93 3.93 0 011.155-.525c.43-.12.86-.18 1.29-.18.36 0 .55.01.57.03l.255 1.575-.975.21-.15-.84a3.683 3.683 0 00-1.845.51v4.245h1.47v.93h-3.9v-.93h1.26v-4.29l-1.44-.495.315-.93 1.995.69zm6.93 4.185c-.91 0-1.63-.21-2.16-.63-.52-.43-.78-1.02-.78-1.77 0-.77.265-1.375.795-1.815.53-.45 1.25-.675 2.16-.675.38 0 .715.035 1.005.105.3.07.575.175.825.315l2.13-.795.345.99-1.77.405c.15.19.26.4.33.63.08.23.12.485.12.765 0 .5-.125.94-.375 1.32-.24.37-.585.655-1.035.855-.45.2-.98.3-1.59.3zm.12 5.115c-.32 0-.695-.035-1.125-.105-.43-.07-.84-.165-1.23-.285-.38-.11-.665-.22-.855-.33l.42-.885c.36.19.805.34 1.335.45.53.11 1.015.165 1.455.165.43 0 .795-.035 1.095-.105.3-.06.53-.16.69-.3.17-.13.255-.3.255-.51 0-.32-.135-.555-.405-.705-.27-.14-.655-.21-1.155-.21h-2.145v-2.955l1.14.375v1.65h1.32c.8 0 1.4.145 1.8.435.4.29.6.725.6 1.305 0 .42-.13.78-.39 1.08-.25.3-.615.53-1.095.69-.47.16-1.04.24-1.71.24zm-.09-6.075c.55 0 .985-.14 1.305-.42.32-.28.48-.635.48-1.065 0-.47-.15-.835-.45-1.095-.3-.26-.745-.39-1.335-.39s-1.035.13-1.335.39c-.3.26-.45.625-.45 1.095 0 .43.16.785.48 1.065.32.28.755.42 1.305.42zm-71.523 22.73l-1.8-5.505h-1.26v-.93h3.39v.93h-.975l.825 2.565.495 1.56.465-1.53.81-2.61h1.14l.825 2.685.465 1.485.45-1.41.885-2.745h-.81v-.93h3.09v.93h-1.275l-1.755 5.505h-1.14l-1.305-4.05-1.35 4.05h-1.17zm14.176-.765c-.4.34-.81.59-1.23.75-.41.16-.88.24-1.41.24-.7 0-1.31-.135-1.83-.405a3.013 3.013 0 01-1.215-1.185c-.28-.52-.42-1.14-.42-1.86 0-.69.135-1.29.405-1.8.27-.52.65-.92 1.14-1.2.5-.29 1.075-.435 1.725-.435.61 0 1.13.13 1.56.39.43.26.76.625.99 1.095.24.46.36 1.01.36 1.65 0 .09-.005.185-.015.285 0 .09-.005.185-.015.285l-4.995.03c.03.51.15.925.36 1.245.22.32.495.555.825.705.34.15.7.225 1.08.225.44 0 .835-.06 1.185-.18.35-.12.67-.3.96-.54l.54.705zm-1.08-3.105c-.01-.56-.175-1.01-.495-1.35-.31-.35-.725-.525-1.245-.525-.53 0-.995.175-1.395.525-.4.34-.64.795-.72 1.365l3.855-.015zm7.114-1.665c-.23-.08-.45-.135-.66-.165-.2-.03-.43-.045-.69-.045-.67 0-1.205.21-1.605.63-.4.42-.6 1.05-.6 1.89 0 .82.215 1.435.645 1.845.44.41.965.615 1.575.615.31 0 .625-.05.945-.15.32-.1.635-.255.945-.465l.495.735c-.25.18-.49.335-.72.465-.23.13-.485.23-.765.3-.28.07-.63.105-1.05.105-.64 0-1.21-.135-1.71-.405a2.97 2.97 0 01-1.155-1.2c-.27-.52-.405-1.135-.405-1.845 0-.75.15-1.38.45-1.89.31-.52.725-.91 1.245-1.17a3.687 3.687 0 011.725-.405c.4 0 .77.045 1.11.135.34.08.73.185 1.17.315l.21 1.62-.96.21-.195-1.125zm1.991 5.535v-.93h1.26v-7.395l-1.425-.495.315-.93 2.28.78v2.94c.65-.42 1.305-.63 1.965-.63.92 0 1.595.205 2.025.615.44.41.66 1.05.66 1.92v3.195h1.26v.93h-3.105v-.93h.675v-2.955c0-.64-.125-1.1-.375-1.38-.25-.29-.655-.435-1.215-.435-.33 0-.67.05-1.02.15-.35.09-.64.21-.87.36v4.26h.675v.93h-3.105zm13.404-5.49c-.22-.09-.43-.16-.63-.21-.2-.05-.46-.075-.78-.075-.38 0-.725.085-1.035.255-.3.17-.45.41-.45.72 0 .3.125.535.375.705.26.16.62.265 1.08.315l.615.06c.82.08 1.395.285 1.725.615.33.32.495.745.495 1.275 0 .41-.115.77-.345 1.08-.22.31-.535.55-.945.72-.4.17-.87.255-1.41.255-.49 0-.97-.065-1.44-.195-.46-.13-.86-.29-1.2-.48l-.255-1.515 1.035-.255.225 1.05c.23.13.48.23.75.3.28.07.56.105.84.105.44 0 .825-.085 1.155-.255.34-.18.51-.44.51-.78 0-.3-.1-.51-.3-.63-.2-.13-.55-.225-1.05-.285l-.66-.075c-.74-.08-1.305-.295-1.695-.645-.39-.35-.585-.78-.585-1.29 0-.44.125-.805.375-1.095.25-.29.57-.505.96-.645.4-.14.815-.21 1.245-.21.47 0 .89.045 1.26.135.37.09.725.22 1.065.39l.27 1.425-.945.21-.255-.975zm8.571 4.725c-.4.34-.81.59-1.23.75-.41.16-.88.24-1.41.24-.7 0-1.31-.135-1.83-.405a3.013 3.013 0 01-1.215-1.185c-.28-.52-.42-1.14-.42-1.86 0-.69.135-1.29.405-1.8.27-.52.65-.92 1.14-1.2.5-.29 1.075-.435 1.725-.435.61 0 1.13.13 1.56.39.43.26.76.625.99 1.095.24.46.36 1.01.36 1.65 0 .09-.005.185-.015.285 0 .09-.005.185-.015.285l-4.995.03c.03.51.15.925.36 1.245.22.32.495.555.825.705.34.15.7.225 1.08.225.44 0 .835-.06 1.185-.18.35-.12.67-.3.96-.54l.54.705zm-1.08-3.105c-.01-.56-.175-1.01-.495-1.35-.31-.35-.725-.525-1.245-.525-.53 0-.995.175-1.395.525-.4.34-.64.795-.72 1.365l3.855-.015zm2.104 3.87v-.93h1.26v-7.56l-1.5-.33.255-.96 2.415.555v8.295h1.26v.93h-3.69zm7.74.225c-.36 0-.705-.07-1.035-.21-.32-.14-.58-.39-.78-.75-.2-.36-.3-.86-.3-1.5v-3.27h-1.245v-.93h1.245v-1.455l1.14-.27v1.725h1.875v.93h-1.875v2.61c0 .67.065 1.21.195 1.62.13.41.415.615.855.615.31 0 .66-.09 1.05-.27l.225.84c-.21.08-.43.15-.66.21-.23.07-.46.105-.69.105zm6.048-6.66h2.43v5.505h1.245v.93h-3.675v-.93h1.245v-4.575h-1.245v-.93zm1.68-3.195c.28 0 .505.085.675.255.17.17.255.395.255.675s-.085.505-.255.675c-.17.17-.395.255-.675.255s-.505-.085-.675-.255c-.16-.17-.24-.395-.24-.675s.08-.505.24-.675c.17-.17.395-.255.675-.255zm2.966 9.63v-.93h1.26v-4.305l-1.44-.495.315-.93 1.995.69c.35-.23.72-.4 1.11-.51.4-.12.79-.18 1.17-.18.48 0 .92.095 1.32.285.41.18.735.46.975.84.25.37.375.84.375 1.41v3.195h1.26v.93h-3.105v-.93h.675v-2.955c0-.64-.165-1.1-.495-1.38-.32-.29-.72-.435-1.2-.435-.28 0-.575.045-.885.135-.3.08-.6.205-.9.375v4.26h.675v.93H504.4zm-101.081 20.255l-1.995-.69c-.61.44-1.26.66-1.95.66-1.03 0-1.835-.315-2.415-.945-.57-.64-.855-1.52-.855-2.64 0-1.04.285-1.85.855-2.43.58-.58 1.385-.87 2.415-.87.27 0 .55.03.84.09.3.05.575.125.825.225v-1.965l-1.425-.495.315-.93 2.28.78v7.77l1.41.48-.3.96zm-3.93-.99c.25 0 .525-.05.825-.15.3-.11.575-.245.825-.405v-4.035c-.22-.11-.485-.2-.795-.27-.3-.07-.585-.105-.855-.105-.62 0-1.125.215-1.515.645-.38.42-.57.98-.57 1.68 0 .79.19 1.43.57 1.92.39.48.895.72 1.515.72zm5.092-5.7h2.43v5.505h1.245v.93h-3.675v-.93h1.245v-4.575h-1.245v-.93zm1.68-3.195c.28 0 .505.085.675.255.17.17.255.395.255.675s-.085.505-.255.675c-.17.17-.395.255-.675.255s-.505-.085-.675-.255c-.16-.17-.24-.395-.24-.675s.08-.505.24-.675c.17-.17.395-.255.675-.255zm9.026 8.865c-.4.34-.81.59-1.23.75-.41.16-.88.24-1.41.24-.7 0-1.31-.135-1.83-.405a3.013 3.013 0 01-1.215-1.185c-.28-.52-.42-1.14-.42-1.86 0-.69.135-1.29.405-1.8.27-.52.65-.92 1.14-1.2.5-.29 1.075-.435 1.725-.435.61 0 1.13.13 1.56.39.43.26.76.625.99 1.095.24.46.36 1.01.36 1.65 0 .09-.005.185-.015.285 0 .09-.005.185-.015.285l-4.995.03c.03.51.15.925.36 1.245.22.32.495.555.825.705.34.15.7.225 1.08.225.44 0 .835-.06 1.185-.18.35-.12.67-.3.96-.54l.54.705zm-1.08-3.105c-.01-.56-.175-1.01-.495-1.35-.31-.35-.725-.525-1.245-.525-.53 0-.995.175-1.395.525-.4.34-.64.795-.72 1.365l3.855-.015zm6.152 3.87v-.93h1.26v-4.305l-1.44-.495.315-.93 1.995.69c.35-.23.72-.4 1.11-.51.4-.12.79-.18 1.17-.18.48 0 .92.095 1.32.285.41.18.735.46.975.84.25.37.375.84.375 1.41v3.195h1.26v.93h-3.105v-.93h.675v-2.955c0-.64-.165-1.1-.495-1.38-.32-.29-.72-.435-1.2-.435-.28 0-.575.045-.885.135-.3.08-.6.205-.9.375v4.26h.675v.93h-3.105zm15.23-.765c-.4.34-.81.59-1.23.75-.41.16-.88.24-1.41.24-.7 0-1.31-.135-1.83-.405a3.013 3.013 0 01-1.215-1.185c-.28-.52-.42-1.14-.42-1.86 0-.69.135-1.29.405-1.8.27-.52.65-.92 1.14-1.2.5-.29 1.075-.435 1.725-.435.61 0 1.13.13 1.56.39.43.26.76.625.99 1.095.24.46.36 1.01.36 1.65 0 .09-.005.185-.015.285 0 .09-.005.185-.015.285l-4.995.03c.03.51.15.925.36 1.245.22.32.495.555.825.705.34.15.7.225 1.08.225.44 0 .835-.06 1.185-.18.35-.12.67-.3.96-.54l.54.705zm-1.08-3.105c-.01-.56-.175-1.01-.495-1.35-.31-.35-.725-.525-1.245-.525-.53 0-.995.175-1.395.525-.4.34-.64.795-.72 1.365l3.855-.015zm8.254 3.435c-.32.2-.68.36-1.08.48s-.775.18-1.125.18c-.92 0-1.6-.205-2.04-.615-.43-.41-.645-1.05-.645-1.92v-3.195h-1.26v-.93h2.43v3.885c0 .64.125 1.105.375 1.395.26.28.665.42 1.215.42.32 0 .66-.045 1.02-.135.36-.1.65-.225.87-.375v-4.26h-1.26v-.93h2.43v5.265l1.41.48-.3.96-2.04-.705zm9.042-.33c-.4.34-.81.59-1.23.75-.41.16-.88.24-1.41.24-.7 0-1.31-.135-1.83-.405a3.013 3.013 0 01-1.215-1.185c-.28-.52-.42-1.14-.42-1.86 0-.69.135-1.29.405-1.8.27-.52.65-.92 1.14-1.2.5-.29 1.075-.435 1.725-.435.61 0 1.13.13 1.56.39.43.26.76.625.99 1.095.24.46.36 1.01.36 1.65 0 .09-.005.185-.015.285 0 .09-.005.185-.015.285l-4.995.03c.03.51.15.925.36 1.245.22.32.495.555.825.705.34.15.7.225 1.08.225.44 0 .835-.06 1.185-.18.35-.12.67-.3.96-.54l.54.705zm-1.08-3.105c-.01-.56-.175-1.01-.495-1.35-.31-.35-.725-.525-1.245-.525-.53 0-.995.175-1.395.525-.4.34-.64.795-.72 1.365l3.855-.015zm6.063-4.965h7.725v2.46h-1.14v-1.425h-2.115l-.03 6.765h1.425v1.035h-4.05v-1.035h1.425l.015-6.765h-2.115v1.425h-1.14v-2.46zm13.87 8.07c-.4.34-.81.59-1.23.75-.41.16-.88.24-1.41.24-.7 0-1.31-.135-1.83-.405a3.013 3.013 0 01-1.215-1.185c-.28-.52-.42-1.14-.42-1.86 0-.69.135-1.29.405-1.8.27-.52.65-.92 1.14-1.2.5-.29 1.075-.435 1.725-.435.61 0 1.13.13 1.56.39.43.26.76.625.99 1.095.24.46.36 1.01.36 1.65 0 .09-.005.185-.015.285 0 .09-.005.185-.015.285l-4.995.03c.03.51.15.925.36 1.245.22.32.495.555.825.705.34.15.7.225 1.08.225.44 0 .835-.06 1.185-.18.35-.12.67-.3.96-.54l.54.705zm-1.08-3.105c-.01-.56-.175-1.01-.495-1.35-.31-.35-.725-.525-1.245-.525-.53 0-.995.175-1.395.525-.4.34-.64.795-.72 1.365l3.855-.015zm7.113-1.665c-.23-.08-.45-.135-.66-.165-.2-.03-.43-.045-.69-.045-.67 0-1.205.21-1.605.63-.4.42-.6 1.05-.6 1.89 0 .82.215 1.435.645 1.845.44.41.965.615 1.575.615.31 0 .625-.05.945-.15.32-.1.635-.255.945-.465l.495.735c-.25.18-.49.335-.72.465-.23.13-.485.23-.765.3-.28.07-.63.105-1.05.105-.64 0-1.21-.135-1.71-.405a2.97 2.97 0 01-1.155-1.2c-.27-.52-.405-1.135-.405-1.845 0-.75.15-1.38.45-1.89.31-.52.725-.91 1.245-1.17a3.687 3.687 0 011.725-.405c.4 0 .77.045 1.11.135.34.08.73.185 1.17.315l.21 1.62-.96.21-.195-1.125zm1.991 5.535v-.93h1.26v-7.395l-1.425-.495.315-.93 2.28.78v2.94c.65-.42 1.305-.63 1.965-.63.92 0 1.595.205 2.025.615.44.41.66 1.05.66 1.92v3.195h1.26v.93h-3.105v-.93h.675v-2.955c0-.64-.125-1.1-.375-1.38-.25-.29-.655-.435-1.215-.435-.33 0-.67.05-1.02.15-.35.09-.64.21-.87.36v4.26h.675v.93h-3.105zm12.504.225c-.52 0-1.03-.07-1.53-.21-.49-.14-.925-.35-1.305-.63v-7.695l-1.425-.495.315-.93 2.265.78v2.79c.62-.33 1.2-.495 1.74-.495 1.1 0 1.905.265 2.415.795.52.53.78 1.355.78 2.475 0 1.24-.265 2.155-.795 2.745-.52.58-1.34.87-2.46.87zm-.015-.96c.71 0 1.23-.215 1.56-.645.34-.43.51-1.1.51-2.01 0-.8-.165-1.385-.495-1.755-.32-.37-.825-.555-1.515-.555-.54 0-1.115.185-1.725.555v4.035c.44.25.995.375 1.665.375zm9.16.3c-.65.44-1.355.66-2.115.66-.84 0-1.48-.17-1.92-.51-.43-.34-.65-.835-.66-1.485-.02-1.31.81-1.965 2.49-1.965l1.935.015c0-.67-.125-1.165-.375-1.485-.25-.33-.63-.495-1.14-.495-.24 0-.475.015-.705.045a4.08 4.08 0 00-.645.135l-.15.825-.96-.18.24-1.365c.38-.14.75-.245 1.11-.315a5.73 5.73 0 011.065-.105c.9 0 1.58.245 2.04.735.46.48.69 1.195.69 2.145v2.61l1.425.465-.3.96-2.025-.69zm-2.16-2.355c-.43 0-.76.085-.99.255-.23.17-.345.42-.345.75 0 .7.48 1.05 1.44 1.05.69 0 1.285-.19 1.785-.57v-1.47l-1.89-.015zm9.53-2.7c-.22-.09-.43-.16-.63-.21-.2-.05-.46-.075-.78-.075-.38 0-.725.085-1.035.255-.3.17-.45.41-.45.72 0 .3.125.535.375.705.26.16.62.265 1.08.315l.615.06c.82.08 1.395.285 1.725.615.33.32.495.745.495 1.275 0 .41-.115.77-.345 1.08-.22.31-.535.55-.945.72-.4.17-.87.255-1.41.255-.49 0-.97-.065-1.44-.195-.46-.13-.86-.29-1.2-.48l-.255-1.515 1.035-.255.225 1.05c.23.13.48.23.75.3.28.07.56.105.84.105.44 0 .825-.085 1.155-.255.34-.18.51-.44.51-.78 0-.3-.1-.51-.3-.63-.2-.13-.55-.225-1.05-.285l-.66-.075c-.74-.08-1.305-.295-1.695-.645-.39-.35-.585-.78-.585-1.29 0-.44.125-.805.375-1.095.25-.29.57-.505.96-.645.4-.14.815-.21 1.245-.21.47 0 .89.045 1.26.135.37.09.725.22 1.065.39l.27 1.425-.945.21-.255-.975zm8.572 4.725c-.4.34-.81.59-1.23.75-.41.16-.88.24-1.41.24-.7 0-1.31-.135-1.83-.405a3.013 3.013 0 01-1.215-1.185c-.28-.52-.42-1.14-.42-1.86 0-.69.135-1.29.405-1.8.27-.52.65-.92 1.14-1.2.5-.29 1.075-.435 1.725-.435.61 0 1.13.13 1.56.39.43.26.76.625.99 1.095.24.46.36 1.01.36 1.65 0 .09-.005.185-.015.285 0 .09-.005.185-.015.285l-4.995.03c.03.51.15.925.36 1.245.22.32.495.555.825.705.34.15.7.225 1.08.225.44 0 .835-.06 1.185-.18.35-.12.67-.3.96-.54l.54.705zm-1.08-3.105c-.01-.56-.175-1.01-.495-1.35-.31-.35-.725-.525-1.245-.525-.53 0-.995.175-1.395.525-.4.34-.64.795-.72 1.365l3.855-.015zm105.232-31.948c-.35.25-.67.45-.96.6-.29.15-.605.26-.945.33-.34.07-.76.105-1.26.105-.78 0-1.485-.17-2.115-.51-.62-.34-1.115-.85-1.485-1.53-.37-.69-.555-1.56-.555-2.61 0-.95.175-1.77.525-2.46.36-.7.86-1.235 1.5-1.605.64-.38 1.395-.57 2.265-.57.54 0 1.04.07 1.5.21.47.13.89.345 1.26.645l.345 1.59-1.035.225-.27-1.155c-.23-.14-.47-.255-.72-.345-.24-.1-.595-.15-1.065-.15-.52 0-1.015.14-1.485.42-.46.28-.835.69-1.125 1.23-.28.53-.42 1.185-.42 1.965 0 .87.135 1.575.405 2.115.27.53.625.915 1.065 1.155.44.24.91.36 1.41.36.49 0 .875-.045 1.155-.135.29-.09.585-.24.885-.45v-1.935h-1.92v-1.035h3.045v3.54zm3.672-5.145a3.93 3.93 0 011.155-.525c.43-.12.86-.18 1.29-.18.36 0 .55.01.57.03l.255 1.575-.975.21-.15-.84a3.683 3.683 0 00-1.845.51v4.245h1.47v.93h-3.9v-.93h1.26v-4.29l-1.44-.495.315-.93 1.995.69zm9.99 5.52c-.32.2-.68.36-1.08.48s-.775.18-1.125.18c-.92 0-1.6-.205-2.04-.615-.43-.41-.645-1.05-.645-1.92v-3.195h-1.26v-.93h2.43v3.885c0 .64.125 1.105.375 1.395.26.28.665.42 1.215.42.32 0 .66-.045 1.02-.135.36-.1.65-.225.87-.375v-4.26h-1.26v-.93h2.43v5.265l1.41.48-.3.96-2.04-.705zm-.945-8.85c.23 0 .425.085.585.255.17.16.255.355.255.585 0 .23-.085.43-.255.6a.796.796 0 01-.585.24c-.23 0-.43-.08-.6-.24a.847.847 0 01-.24-.6c0-.23.08-.425.24-.585.17-.17.37-.255.6-.255zm-2.67 0c.23 0 .425.085.585.255.17.16.255.355.255.585 0 .23-.085.43-.255.6a.796.796 0 01-.585.24c-.23 0-.43-.08-.6-.24a.847.847 0 01-.24-.6c0-.23.08-.425.24-.585.17-.17.37-.255.6-.255zm6.89 9.285v-.93h1.26v-4.305l-1.44-.495.315-.93 1.995.69c.35-.23.72-.4 1.11-.51.4-.12.79-.18 1.17-.18.48 0 .92.095 1.32.285.41.18.735.46.975.84.25.37.375.84.375 1.41v3.195h1.26v.93h-3.105v-.93h.675v-2.955c0-.64-.165-1.1-.495-1.38-.32-.29-.72-.435-1.2-.435-.28 0-.575.045-.885.135-.3.08-.6.205-.9.375v4.26h.675v.93h-3.105zm16.37.255l-1.995-.69c-.61.44-1.26.66-1.95.66-1.03 0-1.835-.315-2.415-.945-.57-.64-.855-1.52-.855-2.64 0-1.04.285-1.85.855-2.43.58-.58 1.385-.87 2.415-.87.27 0 .55.03.84.09.3.05.575.125.825.225v-1.965l-1.425-.495.315-.93 2.28.78v7.77l1.41.48-.3.96zm-3.93-.99c.25 0 .525-.05.825-.15.3-.11.575-.245.825-.405v-4.035c-.22-.11-.485-.2-.795-.27-.3-.07-.585-.105-.855-.105-.62 0-1.125.215-1.515.645-.38.42-.57.98-.57 1.68 0 .79.19 1.43.57 1.92.39.48.895.72 1.515.72zm11.048.3c-.32.2-.68.36-1.08.48s-.775.18-1.125.18c-.92 0-1.6-.205-2.04-.615-.43-.41-.645-1.05-.645-1.92v-3.195h-1.26v-.93h2.43v3.885c0 .64.125 1.105.375 1.395.26.28.665.42 1.215.42.32 0 .66-.045 1.02-.135.36-.1.65-.225.87-.375v-4.26h-1.26v-.93h2.43v5.265l1.41.48-.3.96-2.04-.705zm3.275.435v-.93h1.26v-4.305l-1.44-.495.315-.93 1.995.69c.35-.23.72-.4 1.11-.51.4-.12.79-.18 1.17-.18.48 0 .92.095 1.32.285.41.18.735.46.975.84.25.37.375.84.375 1.41v3.195h1.26v.93h-3.105v-.93h.675v-2.955c0-.64-.165-1.1-.495-1.38-.32-.29-.72-.435-1.2-.435-.28 0-.575.045-.885.135-.3.08-.6.205-.9.375v4.26h.675v.93h-3.105zm12.122-1.77c-.91 0-1.63-.21-2.16-.63-.52-.43-.78-1.02-.78-1.77 0-.77.265-1.375.795-1.815.53-.45 1.25-.675 2.16-.675.38 0 .715.035 1.005.105.3.07.575.175.825.315l2.13-.795.345.99-1.77.405c.15.19.26.4.33.63.08.23.12.485.12.765 0 .5-.125.94-.375 1.32-.24.37-.585.655-1.035.855-.45.2-.98.3-1.59.3zm.12 5.115c-.32 0-.695-.035-1.125-.105-.43-.07-.84-.165-1.23-.285-.38-.11-.665-.22-.855-.33l.42-.885c.36.19.805.34 1.335.45.53.11 1.015.165 1.455.165.43 0 .795-.035 1.095-.105.3-.06.53-.16.69-.3.17-.13.255-.3.255-.51 0-.32-.135-.555-.405-.705-.27-.14-.655-.21-1.155-.21h-2.145v-2.955l1.14.375v1.65h1.32c.8 0 1.4.145 1.8.435.4.29.6.725.6 1.305 0 .42-.13.78-.39 1.08-.25.3-.615.53-1.095.69-.47.16-1.04.24-1.71.24zm-.09-6.075c.55 0 .985-.14 1.305-.42.32-.28.48-.635.48-1.065 0-.47-.15-.835-.45-1.095-.3-.26-.745-.39-1.335-.39s-1.035.13-1.335.39c-.3.26-.45.625-.45 1.095 0 .43.16.785.48 1.065.32.28.755.42 1.305.42zm-63.277 22.73v-1.035h1.41v-6.765h-1.41v-1.035h3.975c.81 0 1.45.1 1.92.3.48.2.82.5 1.02.9.21.39.315.88.315 1.47 0 .88-.24 1.555-.72 2.025-.48.46-1.325.69-2.535.69h-1.365v2.415h.945v1.035H612.9zm2.625-4.515h1.35c.43 0 .79-.04 1.08-.12.29-.08.51-.235.66-.465.16-.24.24-.59.24-1.05 0-.46-.08-.805-.24-1.035-.15-.24-.37-.4-.66-.48-.29-.09-.65-.135-1.08-.135h-1.35v3.285zm3.39 4.515l-1.935-3.525 1.275-.15 1.53 2.64h1.365v1.035h-2.235zm7.733-.435c-.65.44-1.355.66-2.115.66-.84 0-1.48-.17-1.92-.51-.43-.34-.65-.835-.66-1.485-.02-1.31.81-1.965 2.49-1.965l1.935.015c0-.67-.125-1.165-.375-1.485-.25-.33-.63-.495-1.14-.495-.24 0-.475.015-.705.045a4.08 4.08 0 00-.645.135l-.15.825-.96-.18.24-1.365c.38-.14.75-.245 1.11-.315a5.73 5.73 0 011.065-.105c.9 0 1.58.245 2.04.735.46.48.69 1.195.69 2.145v2.61l1.425.465-.3.96-2.025-.69zm-2.16-2.355c-.43 0-.76.085-.99.255-.23.17-.345.42-.345.75 0 .7.48 1.05 1.44 1.05.69 0 1.285-.19 1.785-.57v-1.47l-1.89-.015zm8.218 3.015c-.36 0-.705-.07-1.035-.21-.32-.14-.58-.39-.78-.75-.2-.36-.3-.86-.3-1.5v-3.27h-1.245v-.93h1.245v-1.455l1.14-.27v1.725h1.875v.93h-1.875v2.61c0 .67.065 1.21.195 1.62.13.41.415.615.855.615.31 0 .66-.09 1.05-.27l.225.84c-.21.08-.43.15-.66.21-.23.07-.46.105-.69.105zm2.284-6.66h2.43v5.505h1.245v.93h-3.675v-.93h1.245v-4.575h-1.245v-.93zm1.68-3.195c.28 0 .505.085.675.255.17.17.255.395.255.675s-.085.505-.255.675c-.17.17-.395.255-.675.255s-.505-.085-.675-.255c-.16-.17-.24-.395-.24-.675s.08-.505.24-.675c.17-.17.395-.255.675-.255zm7.06 4.14c-.22-.09-.43-.16-.63-.21-.2-.05-.46-.075-.78-.075-.38 0-.725.085-1.035.255-.3.17-.45.41-.45.72 0 .3.125.535.375.705.26.16.62.265 1.08.315l.615.06c.82.08 1.395.285 1.725.615.33.32.495.745.495 1.275 0 .41-.115.77-.345 1.08-.22.31-.535.55-.945.72-.4.17-.87.255-1.41.255-.49 0-.97-.065-1.44-.195-.46-.13-.86-.29-1.2-.48l-.255-1.515 1.035-.255.225 1.05c.23.13.48.23.75.3.28.07.56.105.84.105.44 0 .825-.085 1.155-.255.34-.18.51-.44.51-.78 0-.3-.1-.51-.3-.63-.2-.13-.55-.225-1.05-.285l-.66-.075c-.74-.08-1.305-.295-1.695-.645-.39-.35-.585-.78-.585-1.29 0-.44.125-.805.375-1.095.25-.29.57-.505.96-.645.4-.14.815-.21 1.245-.21.47 0 .89.045 1.26.135.37.09.725.22 1.065.39l.27 1.425-.945.21-.255-.975zm5.853 5.715c-.52 0-1.03-.07-1.53-.21-.49-.14-.925-.35-1.305-.63v-7.695l-1.425-.495.315-.93 2.265.78v2.79c.62-.33 1.2-.495 1.74-.495 1.1 0 1.905.265 2.415.795.52.53.78 1.355.78 2.475 0 1.24-.265 2.155-.795 2.745-.52.58-1.34.87-2.46.87zm-.015-.96c.71 0 1.23-.215 1.56-.645.34-.43.51-1.1.51-2.01 0-.8-.165-1.385-.495-1.755-.32-.37-.825-.555-1.515-.555-.54 0-1.115.185-1.725.555v4.035c.44.25.995.375 1.665.375zm7.81-5.925c.67 0 1.25.14 1.74.42.5.27.89.665 1.17 1.185.28.51.42 1.125.42 1.845 0 1.07-.305 1.91-.915 2.52-.61.61-1.415.915-2.415.915-.64 0-1.21-.135-1.71-.405a2.994 2.994 0 01-1.155-1.185c-.27-.52-.405-1.135-.405-1.845 0-.72.135-1.335.405-1.845a2.87 2.87 0 011.155-1.185c.5-.28 1.07-.42 1.71-.42zm.015.96c-.69 0-1.21.22-1.56.66-.35.43-.525 1.04-.525 1.83s.175 1.4.525 1.83c.35.43.87.645 1.56.645.71 0 1.24-.215 1.59-.645.35-.43.525-1.04.525-1.83s-.175-1.4-.525-1.83c-.35-.44-.88-.66-1.59-.66zm4.259 5.7v-.93h1.26v-4.305l-1.44-.495.315-.93 1.995.69c.35-.23.72-.4 1.11-.51.4-.12.79-.18 1.17-.18.48 0 .92.095 1.32.285.41.18.735.46.975.84.25.37.375.84.375 1.41v3.195h1.26v.93h-3.105v-.93h.675v-2.955c0-.64-.165-1.1-.495-1.38-.32-.29-.72-.435-1.2-.435-.28 0-.575.045-.885.135-.3.08-.6.205-.9.375v4.26h.675v.93h-3.105zm13.922-.435c-.65.44-1.355.66-2.115.66-.84 0-1.48-.17-1.92-.51-.43-.34-.65-.835-.66-1.485-.02-1.31.81-1.965 2.49-1.965l1.935.015c0-.67-.125-1.165-.375-1.485-.25-.33-.63-.495-1.14-.495-.24 0-.475.015-.705.045a4.08 4.08 0 00-.645.135l-.15.825-.96-.18.24-1.365c.38-.14.75-.245 1.11-.315a5.73 5.73 0 011.065-.105c.9 0 1.58.245 2.04.735.46.48.69 1.195.69 2.145v2.61l1.425.465-.3.96-2.025-.69zm-2.16-2.355c-.43 0-.76.085-.99.255-.23.17-.345.42-.345.75 0 .7.48 1.05 1.44 1.05.69 0 1.285-.19 1.785-.57v-1.47l-1.89-.015zm15.245-4.89c-.1-.06-.235-.115-.405-.165a2.664 2.664 0 00-.585-.135c-.22-.04-.475-.06-.765-.06-.97 0-1.71.325-2.22.975-.51.64-.765 1.52-.765 2.64 0 1.14.26 2.03.78 2.67.53.64 1.265.96 2.205.96.25 0 .485-.015.705-.045.22-.04.42-.085.6-.135s.33-.095.45-.135l.285-1.2 1.02.24-.375 1.74-.33.15c-.22.09-.535.18-.945.27-.4.09-.87.135-1.41.135-.86 0-1.61-.19-2.25-.57a3.874 3.874 0 01-1.47-1.605c-.35-.7-.53-1.525-.54-2.475 0-.94.17-1.755.51-2.445.35-.7.845-1.24 1.485-1.62.64-.39 1.39-.58 2.25-.57.66 0 1.19.06 1.59.18.41.11.705.225.885.345.19.11.285.17.285.18l.33 1.74-1.02.225-.3-1.29zm5.545 1.02c.67 0 1.25.14 1.74.42.5.27.89.665 1.17 1.185.28.51.42 1.125.42 1.845 0 1.07-.305 1.91-.915 2.52-.61.61-1.415.915-2.415.915-.64 0-1.21-.135-1.71-.405a2.994 2.994 0 01-1.155-1.185c-.27-.52-.405-1.135-.405-1.845 0-.72.135-1.335.405-1.845a2.87 2.87 0 011.155-1.185c.5-.28 1.07-.42 1.71-.42zm.015.96c-.69 0-1.21.22-1.56.66-.35.43-.525 1.04-.525 1.83s.175 1.4.525 1.83c.35.43.87.645 1.56.645.71 0 1.24-.215 1.59-.645.35-.43.525-1.04.525-1.83s-.175-1.4-.525-1.83c-.35-.44-.88-.66-1.59-.66zm11.752 5.955l-1.995-.69c-.61.44-1.26.66-1.95.66-1.03 0-1.835-.315-2.415-.945-.57-.64-.855-1.52-.855-2.64 0-1.04.285-1.85.855-2.43.58-.58 1.385-.87 2.415-.87.27 0 .55.03.84.09.3.05.575.125.825.225v-1.965l-1.425-.495.315-.93 2.28.78v7.77l1.41.48-.3.96zm-3.93-.99c.25 0 .525-.05.825-.15.3-.11.575-.245.825-.405v-4.035c-.22-.11-.485-.2-.795-.27-.3-.07-.585-.105-.855-.105-.62 0-1.125.215-1.515.645-.38.42-.57.98-.57 1.68 0 .79.19 1.43.57 1.92.39.48.895.72 1.515.72zm5.092-5.7h2.43v5.505h1.245v.93h-3.675v-.93h1.245v-4.575h-1.245v-.93zm1.68-3.195c.28 0 .505.085.675.255.17.17.255.395.255.675s-.085.505-.255.675c-.17.17-.395.255-.675.255s-.505-.085-.675-.255c-.16-.17-.24-.395-.24-.675s.08-.505.24-.675c.17-.17.395-.255.675-.255zm2.966 9.63v-.93h1.26v-4.305l-1.44-.495.315-.93 1.995.69c.35-.23.72-.4 1.11-.51.4-.12.79-.18 1.17-.18.48 0 .92.095 1.32.285.41.18.735.46.975.84.25.37.375.84.375 1.41v3.195h1.26v.93h-3.105v-.93h.675v-2.955c0-.64-.165-1.1-.495-1.38-.32-.29-.72-.435-1.2-.435-.28 0-.575.045-.885.135-.3.08-.6.205-.9.375v4.26h.675v.93h-3.105zm12.121-1.77c-.91 0-1.63-.21-2.16-.63-.52-.43-.78-1.02-.78-1.77 0-.77.265-1.375.795-1.815.53-.45 1.25-.675 2.16-.675.38 0 .715.035 1.005.105.3.07.575.175.825.315l2.13-.795.345.99-1.77.405c.15.19.26.4.33.63.08.23.12.485.12.765 0 .5-.125.94-.375 1.32-.24.37-.585.655-1.035.855-.45.2-.98.3-1.59.3zm.12 5.115c-.32 0-.695-.035-1.125-.105-.43-.07-.84-.165-1.23-.285-.38-.11-.665-.22-.855-.33l.42-.885c.36.19.805.34 1.335.45.53.11 1.015.165 1.455.165.43 0 .795-.035 1.095-.105.3-.06.53-.16.69-.3.17-.13.255-.3.255-.51 0-.32-.135-.555-.405-.705-.27-.14-.655-.21-1.155-.21h-2.145v-2.955l1.14.375v1.65h1.32c.8 0 1.4.145 1.8.435.4.29.6.725.6 1.305 0 .42-.13.78-.39 1.08-.25.3-.615.53-1.095.69-.47.16-1.04.24-1.71.24zm-.09-6.075c.55 0 .985-.14 1.305-.42.32-.28.48-.635.48-1.065 0-.47-.15-.835-.45-1.095-.3-.26-.745-.39-1.335-.39s-1.035.13-1.335.39c-.3.26-.45.625-.45 1.095 0 .43.16.785.48 1.065.32.28.755.42 1.305.42zm15.017 1.965c-.4.34-.81.59-1.23.75-.41.16-.88.24-1.41.24-.7 0-1.31-.135-1.83-.405a3.013 3.013 0 01-1.215-1.185c-.28-.52-.42-1.14-.42-1.86 0-.69.135-1.29.405-1.8.27-.52.65-.92 1.14-1.2.5-.29 1.075-.435 1.725-.435.61 0 1.13.13 1.56.39.43.26.76.625.99 1.095.24.46.36 1.01.36 1.65 0 .09-.005.185-.015.285 0 .09-.005.185-.015.285l-4.995.03c.03.51.15.925.36 1.245.22.32.495.555.825.705.34.15.7.225 1.08.225.44 0 .835-.06 1.185-.18.35-.12.67-.3.96-.54l.54.705zm-1.08-3.105c-.01-.56-.175-1.01-.495-1.35-.31-.35-.725-.525-1.245-.525-.53 0-.995.175-1.395.525-.4.34-.64.795-.72 1.365l3.855-.015zm3.424 2.235c.25 0 .465.095.645.285.19.18.285.395.285.645s-.095.47-.285.66a.88.88 0 01-.645.27.93.93 0 01-.66-.27.93.93 0 01-.27-.66c0-.25.09-.465.27-.645.19-.19.41-.285.66-.285zm-.375-7.2h3.675v1.035h-.96l1.545 4.11.795 2.355.705-2.235 1.485-4.23h-.96v-1.035h3.495v1.035h-1.41l-2.655 7.8h-1.35l-2.94-7.8h-1.425v-1.035zm9.296 7.2c.25 0 .465.095.645.285.19.18.285.395.285.645s-.095.47-.285.66a.88.88 0 01-.645.27.93.93 0 01-.66-.27.93.93 0 01-.27-.66c0-.25.09-.465.27-.645.19-.19.41-.285.66-.285zm-70.564 151.11h3.6v1.035h-.96l-.015 2.76h4.32l.015-2.76h-.96v-1.035h3.585v1.035h-1.425l-.045 6.765h1.44v1.035h-3.57v-1.035h.96v-2.97h-4.32l-.015 2.97h.96v1.035h-3.585v-1.035h1.44l.015-6.765h-1.44v-1.035zm15.373 8.4c-.65.44-1.355.66-2.115.66-.84 0-1.48-.17-1.92-.51-.43-.34-.65-.835-.66-1.485-.02-1.31.81-1.965 2.49-1.965l1.935.015c0-.67-.125-1.165-.375-1.485-.25-.33-.63-.495-1.14-.495-.24 0-.475.015-.705.045a4.08 4.08 0 00-.645.135l-.15.825-.96-.18.24-1.365c.38-.14.75-.245 1.11-.315a5.73 5.73 0 011.065-.105c.9 0 1.58.245 2.04.735.46.48.69 1.195.69 2.145v2.61l1.425.465-.3.96-2.025-.69zm-2.16-2.355c-.43 0-.76.085-.99.255-.23.17-.345.42-.345.75 0 .7.48 1.05 1.44 1.05.69 0 1.285-.19 1.785-.57v-1.47l-1.89-.015zm9.722-2.745c-.23-.08-.45-.135-.66-.165-.2-.03-.43-.045-.69-.045-.67 0-1.205.21-1.605.63-.4.42-.6 1.05-.6 1.89 0 .82.215 1.435.645 1.845.44.41.965.615 1.575.615.31 0 .625-.05.945-.15.32-.1.635-.255.945-.465l.495.735c-.25.18-.49.335-.72.465-.23.13-.485.23-.765.3-.28.07-.63.105-1.05.105-.64 0-1.21-.135-1.71-.405a2.97 2.97 0 01-1.155-1.2c-.27-.52-.405-1.135-.405-1.845 0-.75.15-1.38.45-1.89.31-.52.725-.91 1.245-1.17a3.687 3.687 0 011.725-.405c.4 0 .77.045 1.11.135.34.08.73.185 1.17.315l.21 1.62-.96.21-.195-1.125zm2.171-4.23l2.28.78v5.25h1.365l1.035-1.77h-.78v-.93h3.15v.93h-1.26l-1.245 2.145 1.455 2.43h1.29v.93h-1.995l-1.695-2.805h-1.32v1.875h.675v.93h-3.105v-.93h1.26v-7.41l-1.425-.495.315-.93zm12.65 9.33c-.65.44-1.355.66-2.115.66-.84 0-1.48-.17-1.92-.51-.43-.34-.65-.835-.66-1.485-.02-1.31.81-1.965 2.49-1.965l1.935.015c0-.67-.125-1.165-.375-1.485-.25-.33-.63-.495-1.14-.495-.24 0-.475.015-.705.045a4.08 4.08 0 00-.645.135l-.15.825-.96-.18.24-1.365c.38-.14.75-.245 1.11-.315a5.73 5.73 0 011.065-.105c.9 0 1.58.245 2.04.735.46.48.69 1.195.69 2.145v2.61l1.425.465-.3.96-2.025-.69zm-2.16-2.355c-.43 0-.76.085-.99.255-.23.17-.345.42-.345.75 0 .7.48 1.05 1.44 1.05.69 0 1.285-.19 1.785-.57v-1.47l-1.89-.015zm8.631 3.015c-.52 0-1.03-.07-1.53-.21-.49-.14-.925-.35-1.305-.63v-7.695l-1.425-.495.315-.93 2.265.78v2.79c.62-.33 1.2-.495 1.74-.495 1.1 0 1.905.265 2.415.795.52.53.78 1.355.78 2.475 0 1.24-.265 2.155-.795 2.745-.52.58-1.34.87-2.46.87zm-.015-.96c.71 0 1.23-.215 1.56-.645.34-.43.51-1.1.51-2.01 0-.8-.165-1.385-.495-1.755-.32-.37-.825-.555-1.515-.555-.54 0-1.115.185-1.725.555v4.035c.44.25.995.375 1.665.375zm10.419.3c-.32.2-.68.36-1.08.48s-.775.18-1.125.18c-.92 0-1.6-.205-2.04-.615-.43-.41-.645-1.05-.645-1.92v-3.195h-1.26v-.93h2.43v3.885c0 .64.125 1.105.375 1.395.26.28.665.42 1.215.42.32 0 .66-.045 1.02-.135.36-.1.65-.225.87-.375v-4.26h-1.26v-.93h2.43v5.265l1.41.48-.3.96-2.04-.705zm5.421-5.52a3.93 3.93 0 011.155-.525c.43-.12.86-.18 1.29-.18.36 0 .55.01.57.03l.255 1.575-.975.21-.15-.84a3.683 3.683 0 00-1.845.51v4.245h1.47v.93h-3.9v-.93h1.26v-4.29l-1.44-.495.315-.93 1.995.69zm6.93 4.185c-.91 0-1.63-.21-2.16-.63-.52-.43-.78-1.02-.78-1.77 0-.77.265-1.375.795-1.815.53-.45 1.25-.675 2.16-.675.38 0 .715.035 1.005.105.3.07.575.175.825.315l2.13-.795.345.99-1.77.405c.15.19.26.4.33.63.08.23.12.485.12.765 0 .5-.125.94-.375 1.32-.24.37-.585.655-1.035.855-.45.2-.98.3-1.59.3zm.12 5.115c-.32 0-.695-.035-1.125-.105-.43-.07-.84-.165-1.23-.285-.38-.11-.665-.22-.855-.33l.42-.885c.36.19.805.34 1.335.45.53.11 1.015.165 1.455.165.43 0 .795-.035 1.095-.105.3-.06.53-.16.69-.3.17-.13.255-.3.255-.51 0-.32-.135-.555-.405-.705-.27-.14-.655-.21-1.155-.21h-2.145v-2.955l1.14.375v1.65h1.32c.8 0 1.4.145 1.8.435.4.29.6.725.6 1.305 0 .42-.13.78-.39 1.08-.25.3-.615.53-1.095.69-.47.16-1.04.24-1.71.24zm-.09-6.075c.55 0 .985-.14 1.305-.42.32-.28.48-.635.48-1.065 0-.47-.15-.835-.45-1.095-.3-.26-.745-.39-1.335-.39s-1.035.13-1.335.39c-.3.26-.45.625-.45 1.095 0 .43.16.785.48 1.065.32.28.755.42 1.305.42zm12.422 2.955c-.71 0-1.33-.065-1.86-.195-.52-.13-.955-.26-1.305-.39l-.285-1.83.99-.09.21 1.125c.3.1.615.185.945.255.34.07.77.105 1.29.105.37 0 .71-.05 1.02-.15.32-.11.575-.28.765-.51.2-.24.3-.56.3-.96 0-.4-.105-.745-.315-1.035-.21-.29-.61-.475-1.2-.555l-1.14-.165c-.86-.13-1.52-.415-1.98-.855-.45-.44-.675-.99-.675-1.65 0-.45.11-.855.33-1.215.23-.36.58-.645 1.05-.855.47-.21 1.065-.315 1.785-.315.39 0 .735.015 1.035.045.31.03.605.08.885.15.29.07.6.17.93.3l.255 1.86-.99.105-.195-1.2c-.2-.08-.46-.14-.78-.18a7.381 7.381 0 00-1.125-.075c-.64 0-1.15.115-1.53.345-.37.23-.555.565-.555 1.005 0 .42.135.745.405.975.28.23.665.38 1.155.45l1.365.21c.85.13 1.475.415 1.875.855.41.44.615.985.615 1.635 0 .46-.09.87-.27 1.23a2.4 2.4 0 01-.705.87c-.3.23-.65.405-1.05.525-.39.12-.805.18-1.245.18zm9.302-5.76c-.23-.08-.45-.135-.66-.165-.2-.03-.43-.045-.69-.045-.67 0-1.205.21-1.605.63-.4.42-.6 1.05-.6 1.89 0 .82.215 1.435.645 1.845.44.41.965.615 1.575.615.31 0 .625-.05.945-.15.32-.1.635-.255.945-.465l.495.735c-.25.18-.49.335-.72.465-.23.13-.485.23-.765.3-.28.07-.63.105-1.05.105-.64 0-1.21-.135-1.71-.405a2.97 2.97 0 01-1.155-1.2c-.27-.52-.405-1.135-.405-1.845 0-.75.15-1.38.45-1.89.31-.52.725-.91 1.245-1.17a3.687 3.687 0 011.725-.405c.4 0 .77.045 1.11.135.34.08.73.185 1.17.315l.21 1.62-.96.21-.195-1.125zm1.991 5.535v-.93h1.26v-7.395l-1.425-.495.315-.93 2.28.78v2.94c.65-.42 1.305-.63 1.965-.63.92 0 1.595.205 2.025.615.44.41.66 1.05.66 1.92v3.195h1.26v.93h-3.105v-.93h.675v-2.955c0-.64-.125-1.1-.375-1.38-.25-.29-.655-.435-1.215-.435-.33 0-.67.05-1.02.15-.35.09-.64.21-.87.36v4.26h.675v.93h-3.105zm12.417-6.66c.67 0 1.25.14 1.74.42.5.27.89.665 1.17 1.185.28.51.42 1.125.42 1.845 0 1.07-.305 1.91-.915 2.52-.61.61-1.415.915-2.415.915-.64 0-1.21-.135-1.71-.405a2.994 2.994 0 01-1.155-1.185c-.27-.52-.405-1.135-.405-1.845 0-.72.135-1.335.405-1.845a2.87 2.87 0 011.155-1.185c.5-.28 1.07-.42 1.71-.42zm.015.96c-.69 0-1.21.22-1.56.66-.35.43-.525 1.04-.525 1.83s.175 1.4.525 1.83c.35.43.87.645 1.56.645.71 0 1.24-.215 1.59-.645.35-.43.525-1.04.525-1.83s-.175-1.4-.525-1.83c-.35-.44-.88-.66-1.59-.66zm7.808-.96c.67 0 1.25.14 1.74.42.5.27.89.665 1.17 1.185.28.51.42 1.125.42 1.845 0 1.07-.305 1.91-.915 2.52-.61.61-1.415.915-2.415.915-.64 0-1.21-.135-1.71-.405a2.994 2.994 0 01-1.155-1.185c-.27-.52-.405-1.135-.405-1.845 0-.72.135-1.335.405-1.845a2.87 2.87 0 011.155-1.185c.5-.28 1.07-.42 1.71-.42zm.015.96c-.69 0-1.21.22-1.56.66-.35.43-.525 1.04-.525 1.83s.175 1.4.525 1.83c.35.43.87.645 1.56.645.71 0 1.24-.215 1.59-.645.35-.43.525-1.04.525-1.83s-.175-1.4-.525-1.83c-.35-.44-.88-.66-1.59-.66zm4.267 5.7v-.93h1.26v-7.56l-1.5-.33.255-.96 2.415.555v8.295h1.26v.93h-3.69zm-102.27 20l-1.8-5.505h-1.26v-.93h3.39v.93h-.975l.825 2.565.495 1.56.465-1.53.81-2.61h1.14l.825 2.685.465 1.485.45-1.41.885-2.745h-.81v-.93h3.09v.93h-1.275l-1.755 5.505h-1.14l-1.305-4.05-1.35 4.05h-1.17zm8.569-6.435h2.43v5.505h1.245v.93h-3.675v-.93h1.245v-4.575h-1.245v-.93zm1.68-3.195c.28 0 .505.085.675.255.17.17.255.395.255.675s-.085.505-.255.675c-.17.17-.395.255-.675.255s-.505-.085-.675-.255c-.16-.17-.24-.395-.24-.675s.08-.505.24-.675c.17-.17.395-.255.675-.255zm5.11 3.675a3.93 3.93 0 011.155-.525c.43-.12.86-.18 1.29-.18.36 0 .55.01.57.03l.255 1.575-.975.21-.15-.84a3.683 3.683 0 00-1.845.51v4.245h1.47v.93h-3.9v-.93h1.26v-4.29l-1.44-.495.315-.93 1.995.69zm11.178 6.21l-1.995-.69c-.61.44-1.26.66-1.95.66-1.03 0-1.835-.315-2.415-.945-.57-.64-.855-1.52-.855-2.64 0-1.04.285-1.85.855-2.43.58-.58 1.385-.87 2.415-.87.27 0 .55.03.84.09.3.05.575.125.825.225v-1.965l-1.425-.495.315-.93 2.28.78v7.77l1.41.48-.3.96zm-3.93-.99c.25 0 .525-.05.825-.15.3-.11.575-.245.825-.405v-4.035c-.22-.11-.485-.2-.795-.27-.3-.07-.585-.105-.855-.105-.62 0-1.125.215-1.515.645-.38.42-.57.98-.57 1.68 0 .79.19 1.43.57 1.92.39.48.895.72 1.515.72zm11.752-1.035c-.91 0-1.63-.21-2.16-.63-.52-.43-.78-1.02-.78-1.77 0-.77.265-1.375.795-1.815.53-.45 1.25-.675 2.16-.675.38 0 .715.035 1.005.105.3.07.575.175.825.315l2.13-.795.345.99-1.77.405c.15.19.26.4.33.63.08.23.12.485.12.765 0 .5-.125.94-.375 1.32-.24.37-.585.655-1.035.855-.45.2-.98.3-1.59.3zm.12 5.115c-.32 0-.695-.035-1.125-.105-.43-.07-.84-.165-1.23-.285-.38-.11-.665-.22-.855-.33l.42-.885c.36.19.805.34 1.335.45.53.11 1.015.165 1.455.165.43 0 .795-.035 1.095-.105.3-.06.53-.16.69-.3.17-.13.255-.3.255-.51 0-.32-.135-.555-.405-.705-.27-.14-.655-.21-1.155-.21h-2.145v-2.955l1.14.375v1.65h1.32c.8 0 1.4.145 1.8.435.4.29.6.725.6 1.305 0 .42-.13.78-.39 1.08-.25.3-.615.53-1.095.69-.47.16-1.04.24-1.71.24zm-.09-6.075c.55 0 .985-.14 1.305-.42.32-.28.48-.635.48-1.065 0-.47-.15-.835-.45-1.095-.3-.26-.745-.39-1.335-.39s-1.035.13-1.335.39c-.3.26-.45.625-.45 1.095 0 .43.16.785.48 1.065.32.28.755.42 1.305.42zm10.666 1.965c-.4.34-.81.59-1.23.75-.41.16-.88.24-1.41.24-.7 0-1.31-.135-1.83-.405a3.013 3.013 0 01-1.215-1.185c-.28-.52-.42-1.14-.42-1.86 0-.69.135-1.29.405-1.8.27-.52.65-.92 1.14-1.2.5-.29 1.075-.435 1.725-.435.61 0 1.13.13 1.56.39.43.26.76.625.99 1.095.24.46.36 1.01.36 1.65 0 .09-.005.185-.015.285 0 .09-.005.185-.015.285l-4.995.03c.03.51.15.925.36 1.245.22.32.495.555.825.705.34.15.7.225 1.08.225.44 0 .835-.06 1.185-.18.35-.12.67-.3.96-.54l.54.705zm-1.08-3.105c-.01-.56-.175-1.01-.495-1.35-.31-.35-.725-.525-1.245-.525-.53 0-.995.175-1.395.525-.4.34-.64.795-.72 1.365l3.855-.015zm5.194 2.1c-.91 0-1.63-.21-2.16-.63-.52-.43-.78-1.02-.78-1.77 0-.77.265-1.375.795-1.815.53-.45 1.25-.675 2.16-.675.38 0 .715.035 1.005.105.3.07.575.175.825.315l2.13-.795.345.99-1.77.405c.15.19.26.4.33.63.08.23.12.485.12.765 0 .5-.125.94-.375 1.32-.24.37-.585.655-1.035.855-.45.2-.98.3-1.59.3zm.12 5.115c-.32 0-.695-.035-1.125-.105-.43-.07-.84-.165-1.23-.285-.38-.11-.665-.22-.855-.33l.42-.885c.36.19.805.34 1.335.45.53.11 1.015.165 1.455.165.43 0 .795-.035 1.095-.105.3-.06.53-.16.69-.3.17-.13.255-.3.255-.51 0-.32-.135-.555-.405-.705-.27-.14-.655-.21-1.155-.21h-2.145v-2.955l1.14.375v1.65h1.32c.8 0 1.4.145 1.8.435.4.29.6.725.6 1.305 0 .42-.13.78-.39 1.08-.25.3-.615.53-1.095.69-.47.16-1.04.24-1.71.24zm-.09-6.075c.55 0 .985-.14 1.305-.42.32-.28.48-.635.48-1.065 0-.47-.15-.835-.45-1.095-.3-.26-.745-.39-1.335-.39s-1.035.13-1.335.39c-.3.26-.45.625-.45 1.095 0 .43.16.785.48 1.065.32.28.755.42 1.305.42zm7.337-3.225a3.93 3.93 0 011.155-.525c.43-.12.86-.18 1.29-.18.36 0 .55.01.57.03l.255 1.575-.975.21-.15-.84a3.683 3.683 0 00-1.845.51v4.245h1.47v.93h-3.9v-.93h1.26v-4.29l-1.44-.495.315-.93 1.995.69zm9.989 5.52c-.32.2-.68.36-1.08.48s-.775.18-1.125.18c-.92 0-1.6-.205-2.04-.615-.43-.41-.645-1.05-.645-1.92v-3.195h-1.26v-.93h2.43v3.885c0 .64.125 1.105.375 1.395.26.28.665.42 1.215.42.32 0 .66-.045 1.02-.135.36-.1.65-.225.87-.375v-4.26h-1.26v-.93h2.43v5.265l1.41.48-.3.96-2.04-.705zm-.945-8.85c.23 0 .425.085.585.255.17.16.255.355.255.585 0 .23-.085.43-.255.6a.796.796 0 01-.585.24c-.23 0-.43-.08-.6-.24a.847.847 0 01-.24-.6c0-.23.08-.425.24-.585.17-.17.37-.255.6-.255zm-2.67 0c.23 0 .425.085.585.255.17.16.255.355.255.585 0 .23-.085.43-.255.6a.796.796 0 01-.585.24c-.23 0-.43-.08-.6-.24a.847.847 0 01-.24-.6c0-.23.08-.425.24-.585.17-.17.37-.255.6-.255zm6.891 9.285v-.93h1.26v-4.305l-1.44-.495.315-.93 1.995.69c.35-.23.72-.4 1.11-.51.4-.12.79-.18 1.17-.18.48 0 .92.095 1.32.285.41.18.735.46.975.84.25.37.375.84.375 1.41v3.195h1.26v.93h-3.105v-.93h.675v-2.955c0-.64-.165-1.1-.495-1.38-.32-.29-.72-.435-1.2-.435-.28 0-.575.045-.885.135-.3.08-.6.205-.9.375v4.26h.675v.93h-3.105zm16.37.255l-1.995-.69c-.61.44-1.26.66-1.95.66-1.03 0-1.835-.315-2.415-.945-.57-.64-.855-1.52-.855-2.64 0-1.04.285-1.85.855-2.43.58-.58 1.385-.87 2.415-.87.27 0 .55.03.84.09.3.05.575.125.825.225v-1.965l-1.425-.495.315-.93 2.28.78v7.77l1.41.48-.3.96zm-3.93-.99c.25 0 .525-.05.825-.15.3-.11.575-.245.825-.405v-4.035c-.22-.11-.485-.2-.795-.27-.3-.07-.585-.105-.855-.105-.62 0-1.125.215-1.515.645-.38.42-.57.98-.57 1.68 0 .79.19 1.43.57 1.92.39.48.895.72 1.515.72zm11.242-.03c-.4.34-.81.59-1.23.75-.41.16-.88.24-1.41.24-.7 0-1.31-.135-1.83-.405a3.013 3.013 0 01-1.215-1.185c-.28-.52-.42-1.14-.42-1.86 0-.69.135-1.29.405-1.8.27-.52.65-.92 1.14-1.2.5-.29 1.075-.435 1.725-.435.61 0 1.13.13 1.56.39.43.26.76.625.99 1.095.24.46.36 1.01.36 1.65 0 .09-.005.185-.015.285 0 .09-.005.185-.015.285l-4.995.03c.03.51.15.925.36 1.245.22.32.495.555.825.705.34.15.7.225 1.08.225.44 0 .835-.06 1.185-.18.35-.12.67-.3.96-.54l.54.705zm-1.08-3.105c-.01-.56-.175-1.01-.495-1.35-.31-.35-.725-.525-1.245-.525-.53 0-.995.175-1.395.525-.4.34-.64.795-.72 1.365l3.855-.015zm5.463 4.095c-.36 0-.705-.07-1.035-.21-.32-.14-.58-.39-.78-.75-.2-.36-.3-.86-.3-1.5v-3.27h-1.245v-.93h1.245v-1.455l1.14-.27v1.725h1.875v.93h-1.875v2.61c0 .67.065 1.21.195 1.62.13.41.415.615.855.615.31 0 .66-.09 1.05-.27l.225.84c-.21.08-.43.15-.66.21-.23.07-.46.105-.69.105zM265.877 21.346a.454.454 0 01-.306-.108.454.454 0 01-.108-.306v-.576c0-.108.03-.228.09-.36.06-.132.18-.276.36-.432l3.816-3.816a19.941 19.941 0 001.44-1.314c.36-.372.612-.726.756-1.062.156-.336.234-.684.234-1.044 0-.684-.192-1.224-.576-1.62-.384-.408-.954-.612-1.71-.612-.48 0-.894.102-1.242.306a2.147 2.147 0 00-.828.81 3.18 3.18 0 00-.378 1.152c-.024.156-.09.264-.198.324a.515.515 0 01-.27.09h-.936a.407.407 0 01-.27-.09.345.345 0 01-.108-.252c.012-.456.108-.912.288-1.368.18-.468.444-.888.792-1.26.36-.372.798-.672 1.314-.9.528-.24 1.14-.36 1.836-.36.948 0 1.722.174 2.322.522.612.336 1.062.786 1.35 1.35.288.564.432 1.182.432 1.854 0 .528-.09 1.014-.27 1.458-.18.432-.444.858-.792 1.278a10.38 10.38 0 01-1.26 1.26l-3.456 3.51h5.616c.132 0 .234.036.306.108a.381.381 0 01.126.306v.738c0 .12-.042.222-.126.306-.072.072-.174.108-.306.108h-7.938zm14.975.18c-.828 0-1.53-.126-2.106-.378a3.768 3.768 0 01-1.386-1.08 4.488 4.488 0 01-.792-1.566 8.484 8.484 0 01-.27-1.872 278.11 278.11 0 01-.036-1.026v-1.08l.036-1.062c.012-.66.102-1.284.27-1.872.18-.6.444-1.122.792-1.566a3.58 3.58 0 011.404-1.062c.576-.264 1.272-.396 2.088-.396.828 0 1.524.132 2.088.396a3.579 3.579 0 011.404 1.062c.36.444.624.966.792 1.566.18.588.276 1.212.288 1.872.012.336.018.69.018 1.062.012.36.012.72 0 1.08 0 .36-.006.702-.018 1.026a6.787 6.787 0 01-.288 1.872 4.488 4.488 0 01-.792 1.566c-.348.456-.81.816-1.386 1.08-.564.252-1.266.378-2.106.378zm0-1.53c.936 0 1.626-.306 2.07-.918.456-.624.69-1.47.702-2.538.024-.348.036-.684.036-1.008v-.99a13.4 13.4 0 00-.036-.99c-.012-1.044-.246-1.878-.702-2.502-.444-.636-1.134-.954-2.07-.954-.924 0-1.614.318-2.07.954-.444.624-.678 1.458-.702 2.502 0 .324-.006.654-.018.99v.99c.012.324.018.66.018 1.008.024 1.068.264 1.914.72 2.538.456.612 1.14.918 2.052.918zm10.688 1.35a.454.454 0 01-.306-.108.454.454 0 01-.108-.306v-10.08l-2.988 2.304a.42.42 0 01-.306.09.382.382 0 01-.27-.162l-.468-.594a.48.48 0 01-.09-.324.454.454 0 01.18-.27l3.924-3.024a.577.577 0 01.234-.108c.072-.012.15-.018.234-.018h.918a.36.36 0 01.288.126.39.39 0 01.108.288v11.772c0 .12-.036.222-.108.306a.39.39 0 01-.288.108h-.954zm5.413 0a.366.366 0 01-.27-.108.483.483 0 01-.09-.288c0-.036.012-.09.036-.162l4.482-10.476h-5.904a.454.454 0 01-.306-.108.454.454 0 01-.108-.306v-.72c0-.132.036-.234.108-.306a.417.417 0 01.306-.126h7.38c.132 0 .234.042.306.126a.381.381 0 01.126.306v.666c0 .156-.012.282-.036.378-.024.096-.06.204-.108.324l-4.446 10.35a1.19 1.19 0 01-.18.306c-.072.096-.18.144-.324.144h-.972zm192.438 0a.454.454 0 01-.306-.108.454.454 0 01-.108-.306v-.576c0-.108.03-.228.09-.36.06-.132.18-.276.36-.432l3.816-3.816a19.941 19.941 0 001.44-1.314c.36-.372.612-.726.756-1.062.156-.336.234-.684.234-1.044 0-.684-.192-1.224-.576-1.62-.384-.408-.954-.612-1.71-.612-.48 0-.894.102-1.242.306a2.147 2.147 0 00-.828.81 3.18 3.18 0 00-.378 1.152c-.024.156-.09.264-.198.324a.515.515 0 01-.27.09h-.936a.407.407 0 01-.27-.09.345.345 0 01-.108-.252c.012-.456.108-.912.288-1.368.18-.468.444-.888.792-1.26.36-.372.798-.672 1.314-.9.528-.24 1.14-.36 1.836-.36.948 0 1.722.174 2.322.522.612.336 1.062.786 1.35 1.35.288.564.432 1.182.432 1.854 0 .528-.09 1.014-.27 1.458-.18.432-.444.858-.792 1.278a10.38 10.38 0 01-1.26 1.26l-3.456 3.51h5.616c.132 0 .234.036.306.108a.381.381 0 01.126.306v.738c0 .12-.042.222-.126.306-.072.072-.174.108-.306.108h-7.938zm14.975.18c-.828 0-1.53-.126-2.106-.378a3.768 3.768 0 01-1.386-1.08 4.488 4.488 0 01-.792-1.566 8.484 8.484 0 01-.27-1.872 278.11 278.11 0 01-.036-1.026v-1.08l.036-1.062c.012-.66.102-1.284.27-1.872.18-.6.444-1.122.792-1.566a3.58 3.58 0 011.404-1.062c.576-.264 1.272-.396 2.088-.396.828 0 1.524.132 2.088.396a3.579 3.579 0 011.404 1.062c.36.444.624.966.792 1.566.18.588.276 1.212.288 1.872.012.336.018.69.018 1.062.012.36.012.72 0 1.08 0 .36-.006.702-.018 1.026a6.787 6.787 0 01-.288 1.872 4.488 4.488 0 01-.792 1.566c-.348.456-.81.816-1.386 1.08-.564.252-1.266.378-2.106.378zm0-1.53c.936 0 1.626-.306 2.07-.918.456-.624.69-1.47.702-2.538.024-.348.036-.684.036-1.008v-.99a13.4 13.4 0 00-.036-.99c-.012-1.044-.246-1.878-.702-2.502-.444-.636-1.134-.954-2.07-.954-.924 0-1.614.318-2.07.954-.444.624-.678 1.458-.702 2.502 0 .324-.006.654-.018.99v.99c.012.324.018.66.018 1.008.024 1.068.264 1.914.72 2.538.456.612 1.14.918 2.052.918zm10.688 1.35a.454.454 0 01-.306-.108.454.454 0 01-.108-.306v-10.08l-2.988 2.304a.42.42 0 01-.306.09.382.382 0 01-.27-.162l-.468-.594a.48.48 0 01-.09-.324.454.454 0 01.18-.27l3.924-3.024a.577.577 0 01.234-.108c.072-.012.15-.018.234-.018h.918a.36.36 0 01.288.126.39.39 0 01.108.288v11.772c0 .12-.036.222-.108.306a.39.39 0 01-.288.108h-.954zm8.455.18a6.99 6.99 0 01-1.926-.252 4.73 4.73 0 01-1.494-.756 3.575 3.575 0 01-.954-1.206 3.57 3.57 0 01-.342-1.584c0-.732.174-1.362.522-1.89.36-.528.834-.93 1.422-1.206a3.057 3.057 0 01-1.098-1.08c-.264-.444-.396-.972-.396-1.584 0-.72.174-1.326.522-1.818.36-.504.858-.894 1.494-1.17.648-.276 1.398-.414 2.25-.414.84 0 1.578.138 2.214.414.648.264 1.146.648 1.494 1.152.36.504.54 1.11.54 1.818 0 .612-.132 1.146-.396 1.602a3.102 3.102 0 01-1.08 1.08 3.35 3.35 0 011.404 1.206c.36.528.54 1.158.54 1.89 0 .78-.198 1.458-.594 2.034-.396.564-.948 1.002-1.656 1.314-.708.3-1.53.45-2.466.45zm0-1.44c.552 0 1.05-.096 1.494-.288a2.592 2.592 0 001.062-.81c.264-.36.396-.78.396-1.26 0-.492-.132-.906-.396-1.242a2.459 2.459 0 00-1.062-.792 3.728 3.728 0 00-1.494-.288c-.552 0-1.056.096-1.512.288-.444.18-.798.444-1.062.792-.264.336-.396.75-.396 1.242 0 .48.132.9.396 1.26.264.348.618.618 1.062.81.456.192.96.288 1.512.288zm0-6.102a3.11 3.11 0 001.26-.252c.396-.168.708-.396.936-.684.24-.288.36-.636.36-1.044 0-.408-.114-.762-.342-1.062-.216-.3-.522-.528-.918-.684a3.201 3.201 0 00-1.296-.252c-.48 0-.918.084-1.314.252-.384.156-.69.384-.918.684-.228.3-.342.654-.342 1.062 0 .42.114.78.342 1.08.228.288.534.51.918.666.396.156.834.234 1.314.234zm190.89 7.362a.454.454 0 01-.306-.108.454.454 0 01-.108-.306v-.576c0-.108.03-.228.09-.36.06-.132.18-.276.36-.432l3.816-3.816a19.941 19.941 0 001.44-1.314c.36-.372.612-.726.756-1.062.156-.336.234-.684.234-1.044 0-.684-.192-1.224-.576-1.62-.384-.408-.954-.612-1.71-.612-.48 0-.894.102-1.242.306a2.147 2.147 0 00-.828.81 3.18 3.18 0 00-.378 1.152c-.024.156-.09.264-.198.324a.515.515 0 01-.27.09h-.936a.407.407 0 01-.27-.09.345.345 0 01-.108-.252c.012-.456.108-.912.288-1.368.18-.468.444-.888.792-1.26.36-.372.798-.672 1.314-.9.528-.24 1.14-.36 1.836-.36.948 0 1.722.174 2.322.522.612.336 1.062.786 1.35 1.35.288.564.432 1.182.432 1.854 0 .528-.09 1.014-.27 1.458-.18.432-.444.858-.792 1.278a10.38 10.38 0 01-1.26 1.26l-3.456 3.51h5.616c.132 0 .234.036.306.108a.381.381 0 01.126.306v.738c0 .12-.042.222-.126.306-.072.072-.174.108-.306.108h-7.938zm14.975.18c-.828 0-1.53-.126-2.106-.378a3.768 3.768 0 01-1.386-1.08 4.488 4.488 0 01-.792-1.566 8.484 8.484 0 01-.27-1.872 278.11 278.11 0 01-.036-1.026v-1.08l.036-1.062c.012-.66.102-1.284.27-1.872.18-.6.444-1.122.792-1.566a3.58 3.58 0 011.404-1.062c.576-.264 1.272-.396 2.088-.396.828 0 1.524.132 2.088.396a3.579 3.579 0 011.404 1.062c.36.444.624.966.792 1.566.18.588.276 1.212.288 1.872.012.336.018.69.018 1.062.012.36.012.72 0 1.08 0 .36-.006.702-.018 1.026a6.787 6.787 0 01-.288 1.872 4.488 4.488 0 01-.792 1.566c-.348.456-.81.816-1.386 1.08-.564.252-1.266.378-2.106.378zm0-1.53c.936 0 1.626-.306 2.07-.918.456-.624.69-1.47.702-2.538.024-.348.036-.684.036-1.008v-.99a13.4 13.4 0 00-.036-.99c-.012-1.044-.246-1.878-.702-2.502-.444-.636-1.134-.954-2.07-.954-.924 0-1.614.318-2.07.954-.444.624-.678 1.458-.702 2.502 0 .324-.006.654-.018.99v.99c.012.324.018.66.018 1.008.024 1.068.264 1.914.72 2.538.456.612 1.14.918 2.052.918zm10.688 1.35a.454.454 0 01-.306-.108.454.454 0 01-.108-.306v-10.08l-2.988 2.304a.42.42 0 01-.306.09.382.382 0 01-.27-.162l-.468-.594a.48.48 0 01-.09-.324.454.454 0 01.18-.27l3.924-3.024a.577.577 0 01.234-.108c.072-.012.15-.018.234-.018h.918a.36.36 0 01.288.126.39.39 0 01.108.288v11.772c0 .12-.036.222-.108.306a.39.39 0 01-.288.108h-.954zm6.205 0a.366.366 0 01-.27-.108.483.483 0 01-.09-.288c0-.06.006-.108.018-.144a.88.88 0 00.054-.09l2.754-3.834c-.3.072-.624.108-.972.108-.672-.012-1.272-.132-1.8-.36a4.139 4.139 0 01-1.35-.918 4.118 4.118 0 01-.846-1.332 4.22 4.22 0 01-.288-1.548c0-.528.09-1.044.27-1.548.192-.504.474-.96.846-1.368a4.159 4.159 0 011.422-.972c.564-.252 1.23-.378 1.998-.378.756 0 1.416.12 1.98.36a3.929 3.929 0 011.44.954c.396.396.684.846.864 1.35.192.504.288 1.026.288 1.566 0 .492-.072.942-.216 1.35a5.47 5.47 0 01-.522 1.098c-.192.324-.384.624-.576.9l-3.456 4.842c-.048.06-.114.138-.198.234-.084.084-.21.126-.378.126h-.972zm1.746-5.814c.504 0 .966-.108 1.386-.324.432-.228.774-.54 1.026-.936.252-.408.378-.894.378-1.458s-.126-1.044-.378-1.44a2.492 2.492 0 00-1.026-.936 2.858 2.858 0 00-1.386-.342c-.492 0-.948.114-1.368.342-.42.216-.756.528-1.008.936-.252.396-.378.876-.378 1.44s.126 1.05.378 1.458c.252.396.588.708 1.008.936.42.216.876.324 1.368.324zm187.288 5.814a.454.454 0 01-.306-.108.454.454 0 01-.108-.306v-.576c0-.108.03-.228.09-.36.06-.132.18-.276.36-.432l3.816-3.816a19.941 19.941 0 001.44-1.314c.36-.372.612-.726.756-1.062.156-.336.234-.684.234-1.044 0-.684-.192-1.224-.576-1.62-.384-.408-.954-.612-1.71-.612-.48 0-.894.102-1.242.306a2.147 2.147 0 00-.828.81 3.18 3.18 0 00-.378 1.152c-.024.156-.09.264-.198.324a.515.515 0 01-.27.09h-.936a.407.407 0 01-.27-.09.345.345 0 01-.108-.252c.012-.456.108-.912.288-1.368.18-.468.444-.888.792-1.26.36-.372.798-.672 1.314-.9.528-.24 1.14-.36 1.836-.36.948 0 1.722.174 2.322.522.612.336 1.062.786 1.35 1.35.288.564.432 1.182.432 1.854 0 .528-.09 1.014-.27 1.458-.18.432-.444.858-.792 1.278a10.38 10.38 0 01-1.26 1.26l-3.456 3.51h5.616c.132 0 .234.036.306.108a.381.381 0 01.126.306v.738c0 .12-.042.222-.126.306-.072.072-.174.108-.306.108h-7.938zm14.975.18c-.828 0-1.53-.126-2.106-.378a3.768 3.768 0 01-1.386-1.08 4.488 4.488 0 01-.792-1.566 8.484 8.484 0 01-.27-1.872 278.11 278.11 0 01-.036-1.026v-1.08l.036-1.062c.012-.66.102-1.284.27-1.872.18-.6.444-1.122.792-1.566a3.58 3.58 0 011.404-1.062c.576-.264 1.272-.396 2.088-.396.828 0 1.524.132 2.088.396a3.579 3.579 0 011.404 1.062c.36.444.624.966.792 1.566.18.588.276 1.212.288 1.872.012.336.018.69.018 1.062.012.36.012.72 0 1.08 0 .36-.006.702-.018 1.026a6.787 6.787 0 01-.288 1.872 4.488 4.488 0 01-.792 1.566c-.348.456-.81.816-1.386 1.08-.564.252-1.266.378-2.106.378zm0-1.53c.936 0 1.626-.306 2.07-.918.456-.624.69-1.47.702-2.538.024-.348.036-.684.036-1.008v-.99a13.4 13.4 0 00-.036-.99c-.012-1.044-.246-1.878-.702-2.502-.444-.636-1.134-.954-2.07-.954-.924 0-1.614.318-2.07.954-.444.624-.678 1.458-.702 2.502 0 .324-.006.654-.018.99v.99c.012.324.018.66.018 1.008.024 1.068.264 1.914.72 2.538.456.612 1.14.918 2.052.918zm7.015 1.35a.454.454 0 01-.306-.108.454.454 0 01-.108-.306v-.576c0-.108.03-.228.09-.36.06-.132.18-.276.36-.432l3.816-3.816a19.941 19.941 0 001.44-1.314c.36-.372.612-.726.756-1.062.156-.336.234-.684.234-1.044 0-.684-.192-1.224-.576-1.62-.384-.408-.954-.612-1.71-.612-.48 0-.894.102-1.242.306a2.147 2.147 0 00-.828.81 3.18 3.18 0 00-.378 1.152c-.024.156-.09.264-.198.324a.515.515 0 01-.27.09h-.936a.407.407 0 01-.27-.09.345.345 0 01-.108-.252c.012-.456.108-.912.288-1.368.18-.468.444-.888.792-1.26.36-.372.798-.672 1.314-.9.528-.24 1.14-.36 1.836-.36.948 0 1.722.174 2.322.522.612.336 1.062.786 1.35 1.35.288.564.432 1.182.432 1.854 0 .528-.09 1.014-.27 1.458-.18.432-.444.858-.792 1.278a10.38 10.38 0 01-1.26 1.26l-3.456 3.51h5.616c.132 0 .234.036.306.108a.381.381 0 01.126.306v.738c0 .12-.042.222-.126.306-.072.072-.174.108-.306.108h-7.938zm10.565 0a.454.454 0 01-.306-.108.454.454 0 01-.108-.306v-.576c0-.108.03-.228.09-.36.06-.132.18-.276.36-.432l3.816-3.816a19.941 19.941 0 001.44-1.314c.36-.372.612-.726.756-1.062.156-.336.234-.684.234-1.044 0-.684-.192-1.224-.576-1.62-.384-.408-.954-.612-1.71-.612-.48 0-.894.102-1.242.306a2.147 2.147 0 00-.828.81 3.18 3.18 0 00-.378 1.152c-.024.156-.09.264-.198.324a.515.515 0 01-.27.09H968a.407.407 0 01-.27-.09.345.345 0 01-.108-.252c.012-.456.108-.912.288-1.368.18-.468.444-.888.792-1.26.36-.372.798-.672 1.314-.9.528-.24 1.14-.36 1.836-.36.948 0 1.722.174 2.322.522.612.336 1.062.786 1.35 1.35.288.564.432 1.182.432 1.854 0 .528-.09 1.014-.27 1.458-.18.432-.444.858-.792 1.278a10.38 10.38 0 01-1.26 1.26l-3.456 3.51h5.616c.132 0 .234.036.306.108a.381.381 0 01.126.306v.738c0 .12-.042.222-.126.306-.072.072-.174.108-.306.108h-7.938zm191.944 0a.476.476 0 01-.31-.108.459.459 0 01-.1-.306v-.576c0-.108.03-.228.09-.36.06-.132.18-.276.36-.432l3.81-3.816c.61-.516 1.09-.954 1.44-1.314.36-.372.61-.726.76-1.062.15-.336.23-.684.23-1.044 0-.684-.19-1.224-.57-1.62-.39-.408-.96-.612-1.71-.612-.48 0-.9.102-1.25.306-.34.192-.62.462-.82.81-.2.336-.32.72-.38 1.152-.03.156-.09.264-.2.324-.1.06-.19.09-.27.09h-.94c-.1 0-.19-.03-.27-.09a.345.345 0 01-.1-.252c.01-.456.1-.912.28-1.368.18-.468.45-.888.8-1.26a4.06 4.06 0 011.31-.9c.53-.24 1.14-.36 1.84-.36.94 0 1.72.174 2.32.522.61.336 1.06.786 1.35 1.35.29.564.43 1.182.43 1.854 0 .528-.09 1.014-.27 1.458-.18.432-.44.858-.79 1.278-.34.408-.76.828-1.26 1.26l-3.46 3.51h5.62c.13 0 .23.036.3.108.09.072.13.174.13.306v.738c0 .12-.04.222-.13.306-.07.072-.17.108-.3.108h-7.94zm14.97.18c-.82 0-1.53-.126-2.1-.378a3.734 3.734 0 01-1.39-1.08 4.518 4.518 0 01-.79-1.566 8.036 8.036 0 01-.27-1.872c-.01-.324-.02-.666-.04-1.026v-1.08c.02-.372.03-.726.04-1.062a7.1 7.1 0 01.27-1.872c.18-.6.44-1.122.79-1.566.36-.456.83-.81 1.41-1.062.57-.264 1.27-.396 2.08-.396.83 0 1.53.132 2.09.396a3.57 3.57 0 011.41 1.062c.36.444.62.966.79 1.566.18.588.27 1.212.29 1.872.01.336.01.69.01 1.062.02.36.02.72 0 1.08 0 .36 0 .702-.01 1.026-.02.66-.11 1.284-.29 1.872-.17.588-.43 1.11-.79 1.566a3.58 3.58 0 01-1.39 1.08c-.56.252-1.27.378-2.11.378zm0-1.53c.94 0 1.63-.306 2.07-.918.46-.624.69-1.47.71-2.538.02-.348.03-.684.03-1.008v-.99c0-.336-.01-.666-.03-.99-.02-1.044-.25-1.878-.71-2.502-.44-.636-1.13-.954-2.07-.954-.92 0-1.61.318-2.07.954-.44.624-.67 1.458-.7 2.502 0 .324 0 .654-.02.99v.99c.02.324.02.66.02 1.008.03 1.068.27 1.914.72 2.538.46.612 1.14.918 2.05.918zm7.02 1.35a.476.476 0 01-.31-.108.459.459 0 01-.1-.306v-.576c0-.108.03-.228.09-.36.06-.132.18-.276.36-.432l3.81-3.816c.61-.516 1.09-.954 1.44-1.314.36-.372.61-.726.76-1.062.15-.336.23-.684.23-1.044 0-.684-.19-1.224-.57-1.62-.39-.408-.96-.612-1.71-.612-.48 0-.9.102-1.25.306-.34.192-.62.462-.82.81-.2.336-.32.72-.38 1.152-.03.156-.09.264-.2.324-.1.06-.19.09-.27.09h-.94c-.1 0-.19-.03-.27-.09a.345.345 0 01-.1-.252c.01-.456.1-.912.28-1.368.18-.468.45-.888.8-1.26a4.06 4.06 0 011.31-.9c.53-.24 1.14-.36 1.84-.36.94 0 1.72.174 2.32.522.61.336 1.06.786 1.35 1.35.29.564.43 1.182.43 1.854 0 .528-.09 1.014-.27 1.458-.18.432-.44.858-.79 1.278-.34.408-.76.828-1.26 1.26l-3.46 3.51h5.62c.13 0 .23.036.3.108.09.072.13.174.13.306v.738c0 .12-.04.222-.13.306-.07.072-.17.108-.3.108h-7.94zm14.63.18c-.75 0-1.41-.09-1.98-.27-.56-.192-1.04-.444-1.42-.756-.38-.312-.68-.654-.88-1.026-.19-.372-.3-.756-.31-1.152 0-.108.04-.192.11-.252a.4.4 0 01.27-.09h.88c.11 0 .21.024.29.072.08.048.16.15.22.306.12.432.32.768.61 1.008.3.24.64.408 1.02.504.4.084.8.126 1.19.126.83 0 1.5-.198 2.02-.594.51-.396.77-.978.77-1.746 0-.78-.23-1.338-.7-1.674-.47-.336-1.12-.504-1.94-.504h-1.71a.457.457 0 01-.31-.108.423.423 0 01-.11-.306v-.486a.55.55 0 01.06-.27c.04-.084.09-.156.14-.216l3.49-3.816h-5.31a.432.432 0 01-.3-.108c-.08-.072-.11-.174-.11-.306v-.684c0-.132.03-.234.11-.306a.397.397 0 01.3-.126h7.18c.14 0 .24.042.31.126.08.072.13.174.13.306v.648c0 .084-.03.162-.08.234a.94.94 0 01-.12.18l-3.48 3.87.29.018c.79.024 1.48.168 2.07.432.6.264 1.06.66 1.39 1.188.33.516.5 1.17.5 1.962 0 .804-.2 1.494-.59 2.07-.4.564-.94.996-1.64 1.296-.7.3-1.48.45-2.36.45z" fill="#EFEFEF"/>
  <ellipse cx="1179.02" cy="169.961" rx="9.359" ry="8.927" fill="#fff"/>
  <ellipse cx="1179.02" cy="86.046" rx="9.359" ry="9.522" fill="#ADADB1"/>
  <path stroke="#ADADB1" stroke-width="2" stroke-dasharray="7 7" d="M956.734 86.237h223.456"/>
  <ellipse cx="1179.02" cy="265.778" rx="9.359" ry="9.522" fill="#ADADB1"/>
  <path stroke="#ADADB1" stroke-width="2" stroke-dasharray="7 7" d="M836.234 264.778h343.956"/>
  <ellipse cx="955.565" cy="86.046" rx="9.359" ry="9.522" fill="#48AE4D"/>
  <path stroke="#fff" stroke-width="2" d="M598.246 169.406h581.664M503.982 87.3c9.312-.543 24.977 1.642 47.327 35.84 9.195 15.878 27.373 51.442 48.605 45.58"/>
  <path d="M590.555 170.63c13.514-.63 36.247 1.903 68.681 41.553 13.345 18.409 39.725 59.643 70.537 52.846" stroke="#48AE4D" stroke-width="2"/>
  <path transform="matrix(1 0 .00005 1 84.302 86.712)" stroke="#48AE4D" stroke-width="2" d="M0-1h871.892"/>
  <ellipse cx="83.987" cy="86.046" rx="9.359" ry="9.522" fill="#48AE4D"/>
  <ellipse cx="284.625" cy="86.046" rx="8.774" ry="9.522" fill="#48AE4D"/>
  <ellipse cx="732.113" cy="86.046" rx="9.359" ry="9.522" fill="#48AE4D"/>
  <ellipse cx="732.113" cy="265.778" rx="9.359" ry="9.522" fill="#48AE4D"/>
  <ellipse cx="835.65" cy="265.183" rx="8.774" ry="8.927" fill="#48AE4D"/>
  <ellipse cx="508.077" cy="86.046" rx="8.774" ry="9.522" fill="#48AE4D"/>
  <path d="M732.476 265.727l103.998.615" stroke="#48AE4D" stroke-width="2"/>
  <ellipse cx="596.989" cy="169.961" rx="8.774" ry="8.927" fill="#fff"/>
</svg>
