<svg xmlns="http://www.w3.org/2000/svg" fill="none" viewBox="0 0 22 37">
  <path d="M2.05 22.568L0 27.218s.56.558 1.491 1.302l2.113-4.774c-.622-.496-1.18-.868-1.554-1.178zm17.833 5.704c.373-.31.807-.682 1.18-1.054l-1.988-4.712a17.4 17.4 0 01-1.243.992l2.05 4.774z" fill="#009245"/>
  <path d="M19.883 28.272c-7.953 6.572-15.285 2.542-18.33.186L.063 31.93s10.313 10.602 21.373 0l-1.553-3.658z" fill="#056938"/>
  <path d="M19.883 28.272l-1.989-4.774c-5.902 4.216-11.308 2.108-14.29.186L1.49 28.458c3.107 2.356 10.439 6.386 18.392-.186z" fill="#009245"/>
  <path d="M10.75 0L1.242 21.824s.248.31.807.682c.373.31.932.744 1.554 1.116 2.982 1.922 8.388 4.03 14.29-.186a17.4 17.4 0 001.243-.992c.249-.186.497-.434.746-.682L10.749 0z" fill="#48AE4D"/>
</svg>
