<svg xmlns="http://www.w3.org/2000/svg" fill="none" viewBox="0 0 17 25">
  <path d="M2.05 10.912l4.163-9.61-.559-1.24-4.411 10.106s.31.31.807.744z" fill="#48AE4D"/>
  <path d="M2.05 10.912L0 15.562s.56.558 1.491 1.302l2.113-4.774c-.622-.496-1.18-.868-1.554-1.178z" fill="#009245"/>
  <path opacity=".39" d="M2.05 10.912L0 15.562s.56.558 1.491 1.302l2.113-4.774c-.622-.496-1.18-.868-1.554-1.178z" fill="#010202"/>
  <path d="M7.27 3.596L6.213 1.24 2.05 10.85c.373.31.932.744 1.554 1.116l3.666-8.37z" fill="#48AE4D"/>
  <path d="M1.491 16.802L0 20.274s7.332 7.564 16.279 3.534l-1.864-4.216C8.699 21.39 3.852 18.6 1.49 16.802z" fill="#056938"/>
  <path opacity=".39" d="M1.491 16.802L0 20.274s7.332 7.564 16.279 3.534l-1.864-4.216C8.699 21.39 3.852 18.6 1.49 16.802z" fill="#010202"/>
  <path d="M14.415 19.654l-2.423-5.456c-3.48.372-6.462-.93-8.388-2.17L1.49 16.802C3.852 18.6 8.7 21.39 14.415 19.654z" fill="#009245"/>
  <path opacity=".39" d="M14.415 19.654l-2.423-5.456c-3.48.372-6.462-.93-8.388-2.17L1.49 16.802C3.852 18.6 8.7 21.39 14.415 19.654z" fill="#010202"/>
  <path d="M11.992 14.198L7.27 3.596l-3.666 8.432c1.926 1.24 4.908 2.604 8.388 2.17z" fill="#48AE4D"/>
  <path opacity=".39" d="M7.27 3.596L6.213 1.24 5.654 0 1.243 10.106s.248.31.807.682c.373.31.932.744 1.554 1.116 1.926 1.24 4.908 2.604 8.388 2.17L7.27 3.596z" fill="#010202"/>
</svg>
